<svg xmlns="http://www.w3.org/2000/svg" viewBox="0 0 223 223" width="223" height="223"><defs></defs><g transform="matrix(1,0,0,1,-16.052400643,-16.052400643)">
<g>
	<g>
		<path d="M118.52513506126537,19.973465326995978 C123.7532213059712,14.745379082290157 132.24677869402865,14.745379082290157 137.47486493873447,19.973465326995978 L236.026534673004,118.5251350612654 C241.25462091770981,123.75322130597122 241.25462091770981,132.24677869402868 236.026534673004,137.4748649387345 L137.47486493873458,236.02653467300402 C132.24677869402876,241.25462091770984 123.7532213059713,241.25462091770984 118.52513506126547,236.02653467300402 L19.97346532699595,137.47486493873458 C14.745379082290128,132.24677869402876 14.745379082290128,123.75322130597132 19.97346532699595,118.5251350612655 L118.52513506126537,19.973465326995978 Z" transform="matrix(1,0,0,1,0,0)" fill="#ffffff" stroke="#ffffff" stroke-width="2"/>
	</g>
	<g>
		<g transform="matrix(0.219995354,0,0,0.219995354,27.231138164,142.323066156)">
			<g>
				<path d="M651.137435899094,39.37502236695963 C654.1968231061253,34.56251950593668 656.843698487595,29.618791058976228 658.9749698498997,24.54378934236246 C658.9749698498997,24.54378934236246 753.3593063214573,7.984403089005525 753.3593063214573,7.984403089005525 C753.3593063214573,7.984403089005525 851.7999534467015,57.203153089005525 851.7999534467015,57.203153089005525 C851.7999534467015,57.203153089005525 753.3593063214573,-41.237470194380705 753.3593063214573,-41.237470194380705 C753.3593063214573,-41.237470194380705 664.3843059399876,-23.440596148055022 664.3843059399876,-23.440596148055022 C663.5280971387181,-28.10935644773764 662.2655753949437,-32.699963137190764 660.6405620435032,-37.206217333357756 C660.6405620435032,-37.206217333357756 734.9061851361546,-65.84372191099447 734.9061851361546,-65.84372191099447 C734.9061851361546,-65.84372191099447 792.753065095261,-143.8249674287252 792.753065095261,-143.8249674287252 C792.753065095261,-143.8249674287252 792.6874523022923,-143.8249674287252 792.6874523022923,-143.8249674287252 C817.1780948498997,-176.97497276930136 793.6124687054905,-240.45934347776694 738.4905700543675,-287.8530946221761 C702.9905681470188,-318.39996992019934 662.7530937054905,-334.98121990231795 630.9155826428685,-335.07184503940863 C630.9155826428685,-335.07184503940863 704.1312103131565,-188.49059013990683 704.1312103131565,-188.49059013990683 C704.1312103131565,-188.49059013990683 579.6968345502171,-251.52184633878989 579.6968345502171,-251.52184633878989 C588.8936881879124,-224.6343460526876 609.0749626019749,-195.50310043958945 637.8687267163548,-170.77184586195273 C660.9968070843968,-150.87809233335776 686.0999469617161,-136.91246180204672 709.5999603131565,-129.55310015348715 C709.5999603131565,-129.55310015348715 691.8405895093235,-90.44997362760824 691.8405895093235,-90.44997362760824 C691.8405895093235,-90.44997362760824 643.0374507764134,-67.57185129789633 643.0374507764134,-67.57185129789633 C619.4093112805638,-96.41871122984213 579.0655975201878,-119.02496485380453 529.9436931470188,-130.3499665704183 C533.0562000134739,-134.17808680204672 534.9249725201878,-139.05622629789633 534.9249725201878,-144.3718400445394 C534.9249725201878,-156.66247276930136 524.9593143323216,-166.6280951943807 512.6686935284886,-166.6280951943807 C500.3780727246555,-166.6280951943807 490.4124622205051,-156.66247276930136 490.4124622205051,-144.3718400445394 C490.4124622205051,-141.63434176115317 490.9312133649143,-139.02809290556235 491.834342942551,-136.60621313719076 C480.84057615788305,-137.7312150445394 469.568717942551,-138.34058909086508 458.06559370549047,-138.34058909086508 C446.562445626572,-138.34058909086508 435.29058741124,-137.7312150445394 424.296820626572,-136.60621313719076 C425.19995020420873,-139.02809290556235 425.7187013486179,-141.6374650445394 425.7187013486179,-144.3718400445394 C425.7187013486179,-156.66247276930136 415.7530670026096,-166.6280951943807 403.4624461987766,-166.6280951943807 C391.1718253949436,-166.6280951943807 381.2062148907932,-156.66247276930136 381.2062148907932,-144.3718400445394 C381.2062148907932,-139.0531030145101 383.07496355564916,-134.17808680204672 386.18744658024633,-130.3499665704183 C337.06244276554906,-119.02496485380453 296.7187051633152,-96.4155879464559 273.08744238407934,-67.56560473112387 C273.08744238407934,-67.56560473112387 224.27183435948217,-90.44685034422201 224.27183435948217,-90.44685034422201 C224.27183435948217,-90.44685034422201 206.51869820149267,-129.53121332792563 206.51869820149267,-129.53121332792563 C230.01245306523168,-136.88747553495688 255.10619925053442,-150.84058909086508 278.2218341687473,-170.7155909982137 C307.0155744412693,-195.44996885923666 327.19682501347387,-224.61247114805502 336.4249591687473,-251.52809290556235 C336.4249591687473,-251.52809290556235 211.95932673008764,-188.49684862760824 211.95932673008764,-188.49684862760824 C211.95932673008764,-188.49684862760824 285.1436977246555,-335.04997013477606 285.1436977246555,-335.04997013477606 C253.2718305447849,-334.92497025398535 213.09683369191015,-318.3749702420644 177.5655751088413,-287.7968457189016 C122.44370626004064,-240.40934710172934 98.88745294602239,-176.88434986738486 123.40933130772436,-143.7499728646688 C123.40933130772436,-143.7499728646688 181.19683311970556,-65.8468451943807 181.19683311970556,-65.8468451943807 C181.19683311970556,-65.8468451943807 255.47494934590185,-37.203094049971526 255.47494934590185,-37.203094049971526 C253.84682463200414,-32.69683985380453 252.58745001347387,-28.10935644773764 251.73120544941747,-23.43747286466879 C251.73120544941747,-23.43747286466879 162.74057673008764,-41.234346910994475 162.74057673008764,-41.234346910994475 C162.74057673008764,-41.234346910994475 64.29995344670141,57.203153089005525 64.29995344670141,57.203153089005525 C64.29995344670141,57.203153089005525 162.74057673008764,7.984403089005525 162.74057673008764,7.984403089005525 C162.74057673008764,7.984403089005525 257.14370058567846,24.54691262574869 257.14370058567846,24.54691262574869 C259.27494810612524,29.62191434236246 261.92182348759496,34.56251950593668 264.97808741124,39.37502236695963 C264.97808741124,39.37502236695963 162.74057673008764,57.206276372391756 162.74057673008764,57.206276372391756 C162.74057673008764,57.206276372391756 113.52182673008764,137.1875319037028 113.52182673008764,137.1875319037028 C113.52182673008764,137.1875319037028 196.6968302586826,84.33442445131021 196.6968302586826,84.33442445131021 C196.6968302586826,84.33442445131021 295.03432558567846,75.81878037782388 295.03432558567846,75.81878037782388 C295.03432558567846,75.81878037782388 308.31557558567846,90.84692330690103 308.31557558567846,90.84692330690103 C308.31557558567846,90.84692330690103 267.3343305447849,100.27189584108072 267.3343305447849,100.27189584108072 C267.3343305447849,100.27189584108072 211.95932673008764,155.64065308900553 211.95932673008764,155.64065308900553 C211.95932673008764,155.64065308900553 273.36870478184545,204.7656569037028 273.36870478184545,204.7656569037028 C273.3749513486179,204.7750505957194 273.3843211987766,204.7875437292643 273.3937148907932,204.7968897375651 C273.3937148907932,204.79379029603678 273.39683817417944,204.79064317079263 273.39683817417944,204.7875437292643 C273.39683817417944,204.7875437292643 273.4843377927097,204.85940308900553 273.4843377927097,204.85940308900553 C273.4843377927097,204.85940308900553 273.4437112668308,204.69379754396158 273.4437112668308,204.69379754396158 C276.3968353131565,199.3875536474772 278.0999545911106,193.29066605897623 278.0999545911106,186.7875132116862 C278.0999545911106,173.79379601808267 271.3718299725803,162.39066453309732 261.224949822739,155.81255288453775 C261.224949822739,155.81255288453775 261.18120001347387,155.64065308900553 261.18120001347387,155.64065308900553 C261.18120001347387,155.64065308900553 288.8687019208225,131.03127808900553 288.8687019208225,131.03127808900553 C288.8687019208225,131.03127808900553 343.83119390995824,131.03127808900553 343.83119390995824,131.03127808900553 C343.83119390995824,131.03127808900553 350.8780841687473,139.00628419252115 350.8780841687473,139.00628419252115 C355.9468393185886,144.74377961488443 363.23431776554906,148.02813859315592 370.89370535405004,148.02813859315592 C370.89370535405004,148.02813859315592 544.1593055585179,148.02813859315592 544.1593055585179,148.02813859315592 C551.8155937054905,148.02813859315592 559.1030959943089,144.74377961488443 564.1718273022923,139.00628419252115 C564.1718273022923,139.00628419252115 571.2187175610813,131.03127808900553 571.2187175610813,131.03127808900553 C571.2187175610813,131.03127808900553 627.240598664597,131.03127808900553 627.240598664597,131.03127808900553 C627.240598664597,131.03127808900553 654.9281005719456,155.64065308900553 654.9281005719456,155.64065308900553 C654.9281005719456,155.64065308900553 654.8843269208226,155.81255288453775 654.8843269208226,155.81255288453775 C644.7374706128392,162.39066453309732 638.0093459943089,173.79379601808267 638.0093459943089,186.7875132116862 C638.0093459943089,193.29066605897623 639.712465272263,199.3875536474772 642.6655654767308,204.69379754396158 C642.6655654767308,204.69379754396158 642.6249389508519,204.85940308900553 642.6249389508519,204.85940308900553 C642.6249389508519,204.85940308900553 642.7124385693821,204.7875437292643 642.7124385693821,204.7875437292643 C642.7155856946263,204.79064317079263 642.7155856946263,204.79379029603678 642.7155856946263,204.7968897375651 C642.724931702927,204.7875437292643 642.7312259534153,204.7750505957194 642.7405719617161,204.7656569037028 C642.7405719617161,204.7656569037028 704.1468505719456,155.64065308900553 704.1468505719456,155.64065308900553 C704.1468505719456,155.64065308900553 648.7749461987767,100.2687963995524 648.7749461987767,100.2687963995524 C648.7749461987767,100.2687963995524 606.9155578473362,90.64064355226236 606.9155578473362,90.64064355226236 C606.9155578473362,90.64064355226236 620.0937156537327,75.73128075929361 620.0937156537327,75.73128075929361 C620.0937156537327,75.73128075929361 719.4124584058079,84.33127732606607 719.4124584058079,84.33127732606607 C719.4124584058079,84.33127732606607 802.5874500134739,137.18438477845865 802.5874500134739,137.18438477845865 C802.5874500134739,137.18438477845865 753.3687000134739,57.203153089005525 753.3687000134739,57.203153089005525 C753.3687000134739,57.203153089005525 651.137435899094,39.37502236695963 651.137435899094,39.37502236695963 C651.137435899094,39.37502236695963 651.137435899094,39.37502236695963 651.137435899094,39.37502236695963 Z" fill="#000000"/>
			</g>
		</g>
	</g>
</g></g></svg>