<svg xmlns="http://www.w3.org/2000/svg" viewBox="0 0 223 223" width="223" height="223"><defs></defs><g transform="matrix(1,0,0,1,-15.966699721,-15.073668045)">
<g>
	<g>
		<g transform="matrix(1,0,0,1,-48.442758948,79.740630172)">
			<g>
				<g>
					<g>
						<path d="M166.88219669689403,-60.74589798896761 C172.11027744640575,-65.97398350685091 180.60383823742137,-65.97398350685091 185.83192661632762,-60.74589798896761 C185.83192661632762,-60.74589798896761 284.38359287609325,37.80577590019254 284.38359287609325,37.80577590019254 C289.6116812549995,43.03385664970426 289.6116812549995,51.52741744071989 284.38359287609325,56.75550581962614 C284.38359287609325,56.75550581962614 185.83192661632762,155.30717207939176 185.83192661632762,155.30717207939176 C180.60383823742137,160.535260458298 172.11027744640575,160.535260458298 166.88219669689403,155.30717207939176 C166.88219669689403,155.30717207939176 68.33052280773387,56.75550581962614 68.33052280773387,56.75550581962614 C63.10243728985057,51.52741744071989 63.10243728985057,43.03385664970426 68.33052280773387,37.80577590019254 C68.33052280773387,37.80577590019254 166.88219669689403,-60.74589798896761 166.88219669689403,-60.74589798896761 C166.88219669689403,-60.74589798896761 166.88219669689403,-60.74589798896761 166.88219669689403,-60.74589798896761 Z" fill="#ffffff" stroke="#ffffff" stroke-width="2"/>
					</g>
				</g>
				<g>
					<g>
						<g>
							<g>
								<path d="M218.83540730919464,70.26601996218199 C219.5084582675068,69.2072915027968 220.09075308761982,68.11969444435869 220.55962623302236,67.00321745745623 C220.55962623302236,67.00321745745623 241.32374175575984,63.360229593634145 241.32374175575984,63.360229593634145 C241.32374175575984,63.360229593634145 262.98021878647756,74.18812539429837 262.98021878647756,74.18812539429837 C262.98021878647756,74.18812539429837 241.32374175575984,52.531646685149326 241.32374175575984,52.531646685149326 C241.32374175575984,52.531646685149326 221.74964746457096,56.446876003765794 221.74964746457096,56.446876003765794 C221.56128718839733,55.41977044922555 221.28354037397963,54.409858325493815 220.9260479308055,53.41850293840821 C220.9260479308055,53.41850293840821 237.2641400693306,47.11838594508879 237.2641400693306,47.11838594508879 C237.2641400693306,47.11838594508879 249.99018087537166,29.96287425690923 249.99018087537166,29.96287425690923 C249.99018087537166,29.96287425690923 249.97574636604128,29.96287425690923 249.97574636604128,29.96287425690923 C255.36357803242623,22.670026402039525 250.1792528064239,8.70375912688121 238.0526805297364,-1.7226427898955308 C230.24284561731707,-8.442813236101415 221.3907988488923,-12.090615155647924 214.38669153356983,-12.110548205974396 C214.38669153356983,-12.110548205974396 230.49379124045714,20.13664581063938 230.49379124045714,20.13664581063938 C230.49379124045714,20.13664581063938 203.1188047189085,6.270060571426598 203.1188047189085,6.270060571426598 C205.1420663937102,12.185184863650534 209.58185291472597,18.5939257357594 215.9163466990745,24.03468505530998 C221.00442395960687,28.41121821369495 226.52700009215965,31.483593454079596 231.6968908088316,33.102618373515156 C231.6968908088316,33.102618373515156 227.7899055252388,41.705124365812594 227.7899055252388,41.705124365812594 C227.7899055252388,41.705124365812594 217.05345034804537,46.73820446736488 217.05345034804537,46.73820446736488 C211.85536198523965,40.39203047947797 202.97993802542493,35.418759599493 192.1733378466111,32.92731293612894 C192.8580841143435,32.085143238266824 193.26920579497397,31.011974395041648 193.26920579497397,29.842564300071786 C193.26920579497397,27.138681941716072 191.07679852572124,24.94629145677652 188.37292623795344,24.94629145677652 C185.66904723646036,24.94629145677652 183.47666010838344,27.138681941716072 183.47666010838344,29.842564300071786 C183.47666010838344,30.444802241099183 183.590780010522,31.01816444974054 183.7894659961608,31.55096568716351 C181.3708867500141,31.303470918812195 178.89113203920766,31.1694112526219 176.3604940045803,31.1694112526219 C173.82985596995292,31.1694112526219 171.35010125914647,31.303470918812195 168.93152201299978,31.55096568716351 C169.13020799863858,31.01816444974054 169.24432790077714,30.444114084259013 169.24432790077714,29.842564300071786 C169.24432790077714,27.138681941716072 167.05193405897495,24.94629145677652 164.34805505748187,24.94629145677652 C161.6441760559888,24.94629145677652 159.45178892791188,27.138681941716072 159.45178892791188,29.842564300071786 C159.45178892791188,31.012662551881817 159.86290389481707,32.085143238266824 160.54763673509893,32.92731293612894 C149.74036518375812,35.418759599493 140.86493451021812,40.39271695788682 135.66616134743487,46.7395791026139 C135.66616134743487,46.7395791026139 124.9269568997434,41.705810844221446 124.9269568997434,41.705810844221446 C124.9269568997434,41.705810844221446 121.02134792983094,33.10743211453371 121.02134792983094,33.10743211453371 C126.18986568968518,31.489088638213047 131.71037399485482,28.419469382051716 136.79570534175178,24.047061807845125 C143.13019241237504,18.605614331454376 147.56997893339081,12.189998604669086 149.6001221765942,6.2686876146088935 C149.6001221765942,6.2686876146088935 122.21826080036914,20.13526949695904 122.21826080036914,20.13526949695904 C122.21826080036914,20.13526949695904 138.31848565258002,-12.105734464955844 138.31848565258002,-12.105734464955844 C131.30682203946623,-12.078235046250143 122.46850819608113,-8.437314695105329 114.65179842898539,-1.710269394223019 C102.52524125817973,8.714759565736017 97.34297546740396,22.689962809228632 102.73767527474007,29.979373236760125 C102.73767527474007,29.979373236760125 115.45065788513108,47.11769778824862 115.45065788513108,47.11769778824862 C115.45065788513108,47.11769778824862 131.7914959372916,53.41919025603272 131.7914959372916,53.41919025603272 C131.4333153372773,54.410545643118326 131.1562600365624,55.41977044922555 130.96788968980087,56.447562901782476 C130.96788968980087,56.447562901782476 111.39036468499904,52.53233316355818 111.39036468499904,52.53233316355818 C111.39036468499904,52.53233316355818 89.73388597585,74.18812539429837 89.73388597585,74.18812539429837 C89.73388597585,74.18812539429837 111.39036468499904,63.360229593634145 111.39036468499904,63.360229593634145 C111.39036468499904,63.360229593634145 132.1586158625028,67.00390477508074 132.1586158625028,67.00390477508074 C132.6274755804548,68.12038134237537 133.2097771142931,69.2072915027968 133.88214327262773,70.26601996218199 C133.88214327262773,70.26601996218199 111.39036468499904,74.18881271192288 111.39036468499904,74.18881271192288 C111.39036468499904,74.18881271192288 100.56247024806027,91.78431677782498 100.56247024806027,91.78431677782498 C100.56247024806027,91.78431677782498 118.86058244777547,80.1568797631943 118.86058244777547,80.1568797631943 C118.86058244777547,80.1568797631943 140.49437715766868,78.28347682857441 140.49437715766868,78.28347682857441 C140.49437715766868,78.28347682857441 143.4161903951495,81.58959880638884 143.4161903951495,81.58959880638884 C143.4161903951495,81.58959880638884 134.40050328699505,83.66304893444601 134.40050328699505,83.66304893444601 C134.40050328699505,83.66304893444601 122.21826080036914,95.84391846425422 122.21826080036914,95.84391846425422 C122.21826080036914,95.84391846425422 135.72804175324796,106.65119001559503 135.72804175324796,106.65119001559503 C135.72941135320303,106.65325784297818 135.7314724668609,106.65600375661359 135.73354029424405,106.65806151340882 C135.73354029424405,106.65738007029393 135.73423180794686,106.65668855659112 135.73423180794686,106.65600375661359 C135.73423180794686,106.65600375661359 135.7534800582958,106.67181457962431 135.7534800582958,106.67181457962431 C135.7534800582958,106.67181457962431 135.7445440899615,106.63538254944694 135.7445440899615,106.63538254944694 C136.39421114315843,105.46803356813496 136.76889072302362,104.12674539252919 136.76889072302362,102.69608074926725 C136.76889072302362,99.83752423127987 135.28873585393427,97.32889043122475 133.05646919775387,95.88173352183719 C133.05646919775387,95.88173352183719 133.04684842944204,95.84391846425422 133.04684842944204,95.84391846425422 C133.04684842944204,95.84391846425422 139.137969672755,90.42997040656917 139.137969672755,90.42997040656917 C139.137969672755,90.42997040656917 151.22946273490703,90.42997040656917 151.22946273490703,90.42997040656917 C151.22946273490703,90.42997040656917 152.77974246444097,92.184434662738 152.77974246444097,92.184434662738 C153.89484523570223,93.4466552958396 155.49805597526444,94.16919983684181 157.18308688469148,94.16919983684181 C157.18308688469148,94.16919983684181 195.30071192440715,94.16919983684181 195.30071192440715,94.16919983684181 C196.98506474758193,94.16919983684181 198.58827548714413,93.4466552958396 199.70337154468012,92.184434662738 C199.70337154468012,92.184434662738 201.25365127421406,90.42997040656917 201.25365127421406,90.42997040656917 C201.25365127421406,90.42997040656917 213.5782113091123,90.42997040656917 213.5782113091123,90.42997040656917 C213.5782113091123,90.42997040656917 219.66933255242526,95.84391846425422 219.66933255242526,95.84391846425422 C219.66933255242526,95.84391846425422 219.65970507038816,95.88173352183719 219.65970507038816,95.88173352183719 C217.42744512793303,97.32889043122475 215.9472835451184,99.83752423127987 215.9472835451184,102.69608074926725 C215.9472835451184,104.12674539252919 216.3219631249836,105.46803356813496 216.9716368919058,106.63538254944694 C216.9716368919058,106.63538254944694 216.96269420984623,106.67181457962431 216.96269420984623,106.67181457962431 C216.96269420984623,106.67181457962431 216.98194917392044,106.65600375661359 216.98194917392044,106.65600375661359 C216.98263397389798,106.65668855659112 216.98263397389798,106.65738007029393 216.98263397389798,106.65806151340882 C216.98468837383058,106.65600375661359 216.9860714012362,106.65325784297818 216.98813922861933,106.65119001559503 C216.98813922861933,106.65119001559503 230.49722866779535,95.84391846425422 230.49722866779535,95.84391846425422 C230.49722866779535,95.84391846425422 218.31567098114698,83.66236749133111 218.31567098114698,83.66236749133111 C218.31567098114698,83.66236749133111 209.10678971462454,81.54421738042663 209.10678971462454,81.54421738042663 C209.10678971462454,81.54421738042663 212.00592398814348,78.26422689979415 212.00592398814348,78.26422689979415 C212.00592398814348,78.26422689979415 233.8555951772292,80.15618657106018 233.8555951772292,80.15618657106018 C233.8555951772292,80.15618657106018 252.15370569851308,91.78362526412218 252.15370569851308,91.78362526412218 C252.15370569851308,91.78362526412218 241.32580958314298,74.18812539429837 241.32580958314298,74.18812539429837 C241.32580958314298,74.18812539429837 218.83540730919464,70.26601996218199 218.83540730919464,70.26601996218199 C218.83540730919464,70.26601996218199 218.83540730919464,70.26601996218199 218.83540730919464,70.26601996218199 C218.83540730919464,70.26601996218199 218.83540730919464,70.26601996218199 218.83540730919464,70.26601996218199 Z" fill="#000000"/>
							</g>
						</g>
					</g>
				</g>
			</g>
		</g>
	</g>
	<g>
		<path d="M186.7506998058691,36.351943443201726 C204.9029604901974,36.351943443201726 219.64805655679808,51.097039509802414 219.64805655679808,69.24930019413071 C219.64805655679808,87.40156087845901 204.9029604901974,102.1466569450597 186.7506998058691,102.1466569450597 C168.5984391215408,102.1466569450597 153.8533430549401,87.40156087845901 153.8533430549401,69.24930019413071 C153.8533430549401,51.097039509802414 168.5984391215408,36.351943443201726 186.7506998058691,36.351943443201726 Z" fill="#ce4141"/>
	</g>
</g></g></svg>