<svg xmlns="http://www.w3.org/2000/svg" viewBox="0 0 223 223" width="223" height="223"><defs></defs><g transform="matrix(1,0,0,1,-16.590572083,-18.019045849)">
<g>
	<g>
		<g transform="matrix(1,0,0,1,-56.957040271,84.970546397)">
			<g>
				<g>
					<g>
						<path d="M176.0203503816163,-63.03043641014813 C181.24843113112803,-68.25852192803143 189.74199192214365,-68.25852192803143 194.9700803010499,-63.03043641014813 C194.9700803010499,-63.03043641014813 293.52174656081553,35.52123747901203 293.52174656081553,35.52123747901203 C298.7498349397218,40.74931822852375 298.7498349397218,49.24287901953937 293.52174656081553,54.47096739844562 C293.52174656081553,54.47096739844562 194.9700803010499,153.02263365821125 194.9700803010499,153.02263365821125 C189.74199192214365,158.2507220371175 181.24843113112803,158.2507220371175 176.0203503816163,153.02263365821125 C176.0203503816163,153.02263365821125 77.46867649245615,54.47096739844562 77.46867649245615,54.47096739844562 C72.24059097457285,49.24287901953937 72.24059097457285,40.74931822852375 77.46867649245615,35.52123747901203 C77.46867649245615,35.52123747901203 176.0203503816163,-63.03043641014813 176.0203503816163,-63.03043641014813 C176.0203503816163,-63.03043641014813 176.0203503816163,-63.03043641014813 176.0203503816163,-63.03043641014813 Z" fill="#ffffff" stroke="#ffffff" stroke-width="2"/>
					</g>
				</g>
				<g>
					<g>
						<g>
							<g>
								<path d="M160.073372890239,26.04422881654216 C160.073372890239,22.534225151839905 157.22789575248163,19.688750923389875 153.71789208777938,19.688750923389875 C150.20782441831562,19.688750923389875 147.36241710393443,22.534225151839905 147.36241710393443,26.04422881654216 C147.36241710393443,26.04422881654216 147.36241710393443,29.2219677631183 147.36241710393443,29.2219677631183 C147.36241710393443,29.2219677631183 144.18467670270462,29.2219677631183 144.18467670270462,29.2219677631183 C140.67460903324087,29.2219677631183 137.829195900245,32.0673794414605 137.829195900245,35.577445656270584 C137.829195900245,39.087580239803174 140.67460903324087,41.93292500407654 144.18467670270462,41.93292500407654 C144.18467670270462,41.93292500407654 147.36241710393443,41.93292500407654 147.36241710393443,41.93292500407654 C147.36241710393443,41.93292500407654 147.36241710393443,45.1106643143161 147.36241710393443,45.1106643143161 C147.36241710393443,48.62079794323222 150.20782441831562,51.466142934795215 153.71789208777938,51.466142934795215 C157.22789575248163,51.466142934795215 160.073372890239,48.62079794323222 160.073372890239,45.1106643143161 C160.073372890239,45.1106643143161 160.073372890239,41.93292500407654 160.073372890239,41.93292500407654 C160.073372890239,41.93292500407654 163.25111620077615,41.93292500407654 163.25111620077615,41.93292500407654 C166.76111404686372,41.93292500407654 169.6065911846211,39.087580239803174 169.6065911846211,35.577445656270584 C169.6065911846211,32.0673794414605 166.76111404686372,29.2219677631183 163.25111620077615,29.2219677631183 C163.25111620077615,29.2219677631183 160.073372890239,29.2219677631183 160.073372890239,29.2219677631183 C160.073372890239,29.2219677631183 160.073372890239,26.04422881654216 160.073372890239,26.04422881654216 C160.073372890239,26.04422881654216 160.073372890239,26.04422881654216 160.073372890239,26.04422881654216 C160.073372890239,26.04422881654216 160.073372890239,26.04422881654216 160.073372890239,26.04422881654216 Z" fill="#000000"/>
							</g>
						</g>
						<g>
							<g>
								<path d="M223.628221645138,22.866488415312347 C223.628221645138,26.376556084776098 220.78287251690364,29.2219677631183 217.27274666129307,29.2219677631183 C213.7626208056825,29.2219677631183 210.91726004021876,26.376556084776098 210.91726004021876,22.866488415312347 C210.91726004021876,19.356484750610093 213.7626208056825,16.511010522160063 217.27274666129307,16.511010522160063 C220.78287251690364,16.511010522160063 223.628221645138,19.356484750610093 223.628221645138,22.866488415312347 C223.628221645138,22.866488415312347 223.628221645138,22.866488415312347 223.628221645138,22.866488415312347 C223.628221645138,22.866488415312347 223.628221645138,22.866488415312347 223.628221645138,22.866488415312347 Z" fill="#000000"/>
							</g>
						</g>
						<g>
							<g>
								<path d="M217.27274666129307,54.643882245034774 C220.78287251690364,54.643882245034774 223.628221645138,51.7985372989297 223.628221645138,48.2884035336398 C223.628221645138,44.7782697683499 220.78287251690364,41.93292500407654 217.27274666129307,41.93292500407654 C213.7626208056825,41.93292500407654 210.91726004021876,44.7782697683499 210.91726004021876,48.2884035336398 C210.91726004021876,51.7985372989297 213.7626208056825,54.643882245034774 217.27274666129307,54.643882245034774 C217.27274666129307,54.643882245034774 217.27274666129307,54.643882245034774 217.27274666129307,54.643882245034774 C217.27274666129307,54.643882245034774 217.27274666129307,54.643882245034774 217.27274666129307,54.643882245034774 Z" fill="#000000"/>
							</g>
						</g>
						<g>
							<g>
								<path d="M210.91726004021876,35.577445656270584 C210.91726004021876,39.087580239803174 208.07192254921375,41.93292500407654 204.56178505637382,41.93292500407654 C201.0516475635339,41.93292500407654 198.20631007252888,39.087580239803174 198.20631007252888,35.577445656270584 C198.20631007252888,32.0673794414605 201.0516475635339,29.2219677631183 204.56178505637382,29.2219677631183 C208.07192254921375,29.2219677631183 210.91726004021876,32.0673794414605 210.91726004021876,35.577445656270584 C210.91726004021876,35.577445656270584 210.91726004021876,35.577445656270584 210.91726004021876,35.577445656270584 C210.91726004021876,35.577445656270584 210.91726004021876,35.577445656270584 210.91726004021876,35.577445656270584 Z" fill="#000000"/>
							</g>
						</g>
						<g>
							<g>
								<path d="M229.98369662898295,41.93292500407654 C233.49382248459352,41.93292500407654 236.33918325005726,39.087580239803174 236.33918325005726,35.577445656270584 C236.33918325005726,32.0673794414605 233.49382248459352,29.2219677631183 229.98369662898295,29.2219677631183 C226.4735707733724,29.2219677631183 223.628221645138,32.0673794414605 223.628221645138,35.577445656270584 C223.628221645138,39.087580239803174 226.4735707733724,41.93292500407654 229.98369662898295,41.93292500407654 C229.98369662898295,41.93292500407654 229.98369662898295,41.93292500407654 229.98369662898295,41.93292500407654 C229.98369662898295,41.93292500407654 229.98369662898295,41.93292500407654 229.98369662898295,41.93292500407654 Z" fill="#000000"/>
							</g>
						</g>
						<g>
							<g>
								<path d="M185.49534846760963,-8.910906869063751 C173.97858188410402,-8.910906869063751 159.83428019435615,-7.2701098963763116 148.74682845790522,-5.674058070590604 C134.28957548681325,-3.592890882953384 122.51865763262873,7.085582064755158 119.46148183690963,21.521035595942408 C117.75065056326042,29.599165278469627 116.07407492889564,39.150494011048295 115.68988634800434,47.14696107300422 C115.41441567313194,52.880235769583834 114.80959540608893,60.891952875125185 114.1687986444694,68.57699731491289 C113.50211486613131,76.57282269276845 116.16648471261561,84.80953144517514 121.05581717136425,90.66737231768104 C126.04512215826531,96.64533267167451 133.94701618466166,100.67471170147371 143.06395041956858,98.12361282699669 C148.90139413830804,96.48962363348676 153.56593314675393,92.38715989397895 157.0259840044144,88.34444750863679 C160.56286966894578,84.21274813966113 163.37777580516587,79.5090527637152 165.38248639588647,75.68242918111207 C166.92597285663834,72.73602089843348 169.6659468729884,71.07597012976453 172.2466537682729,71.07597012976453 C172.2466537682729,71.07597012976453 198.74398498079955,71.07597012976453 198.74398498079955,71.07597012976453 C201.32430784751506,71.07597012976453 204.06478226472774,72.73602089843348 205.60790215275466,75.68242918111207 C207.6130433209617,79.5090527637152 210.42789127103498,84.21274813966113 213.96471293080486,88.34444750863679 C217.42463577894233,92.38715989397895 222.08891876834224,96.48962363348676 227.92643231045787,98.12361282699669 C237.04336363605745,100.67471170147371 244.94512383431612,96.64533267167451 249.93481866840085,90.66737231768104 C254.82409585031002,84.80953144517514 257.4882998662759,76.57282269276845 256.8216146332841,68.57699731491289 C256.1809851568367,60.891952875125185 255.57594232778212,52.880235769583834 255.30074512779976,47.14696107300422 C254.9162394324083,39.150494011048295 253.2396754352729,29.599165278469627 251.5287699742865,21.521035595942408 C248.47178619285188,7.085582064755158 236.70081015252055,-3.592890882953384 222.24336807645142,-5.674058070590604 C211.1562305451933,-7.2701098963763116 197.01212086972993,-8.910906869063751 185.49534846760963,-8.910906869063751 C185.49534846760963,-8.910906869063751 185.49534846760963,-8.910906869063751 185.49534846760963,-8.910906869063751 C185.49534846760963,-8.910906869063751 185.49534846760963,-8.910906869063751 185.49534846760963,-8.910906869063751 ZM150.55794791955333,6.907183338616392 C161.51892624728436,5.329372869857593 174.9249155573096,3.800051826548156 185.49534846760963,3.800051826548156 C196.06578137790967,3.800051826548156 209.4713924779806,5.329372869857593 220.43268501090444,6.90724734337789 C229.76126262693361,8.2500963326778 237.1723855980079,15.080329544240954 239.09363397973522,24.154555147384713 C240.76703265048383,32.054287558426836 242.27012046950114,40.803555896157775 242.60441152019013,47.757085189161245 C242.8910364794072,53.72869307057604 243.51260417415762,61.9291689456968 244.154513745835,69.63327516718152 C244.5453733684588,74.31790294281575 242.91201840394916,79.24466945911865 240.17598940835325,82.52282751252403 C237.53972638008855,85.68150031344214 234.48909652588628,86.76065841329262 231.35203696920308,85.88296984679357 C229.02847793115853,85.23216943188265 226.3782269531992,83.30074138376983 223.6212276702907,80.07914317437724 C220.940498788629,76.94779458800406 218.6353498474371,73.15802902010171 216.86725904135966,69.78390455475221 C213.48678355808516,63.32991606038627 206.77476714100868,58.365013616133126 198.74398498079955,58.365013616133126 C198.74398498079955,58.365013616133126 172.2466537682729,58.365013616133126 172.2466537682729,58.365013616133126 C164.21580760330227,58.365013616133126 157.5039773818956,63.32991606038627 154.12305386529061,69.78390455475221 C152.35521325964447,73.15802902010171 150.04989557862683,76.94779458800406 147.36940526016707,80.07914317437724 C144.61201903938223,83.30074138376983 141.9620386270056,85.23216943188265 139.63821775130037,85.88296984679357 C136.50153640457148,86.76065841329262 133.45046142634607,85.68150031344214 130.81440204959523,82.52282751252403 C128.07843124014613,79.24466945911865 126.44520137585215,74.31790294281575 126.83580788873729,69.63327516718152 C127.47815676582314,61.9291689456968 128.09927642724307,53.72869307057604 128.38616322412082,47.757085189161245 C128.72027098844734,40.803555896157775 130.22359446135926,32.054287558426836 131.89661201284622,24.154555147384713 C133.81838116058753,15.080329544240954 141.22924811261583,8.2500963326778 150.55794791955333,6.907183338616392 C150.55794791955333,6.907183338616392 150.55794791955333,6.907183338616392 150.55794791955333,6.907183338616392 C150.55794791955333,6.907183338616392 150.55794791955333,6.907183338616392 150.55794791955333,6.907183338616392 Z" fill="#000000"/>
							</g>
						</g>
					</g>
				</g>
			</g>
		</g>
	</g>
	<g>
		<path d="M186.7506998058691,36.351943443201726 C204.9029604901974,36.351943443201726 219.64805655679808,51.097039509802414 219.64805655679808,69.24930019413071 C219.64805655679808,87.40156087845901 204.9029604901974,102.1466569450597 186.7506998058691,102.1466569450597 C168.5984391215408,102.1466569450597 153.8533430549401,87.40156087845901 153.8533430549401,69.24930019413071 C153.8533430549401,51.097039509802414 168.5984391215408,36.351943443201726 186.7506998058691,36.351943443201726 Z" fill="#ce4141"/>
	</g>
</g></g></svg>