<svg xmlns="http://www.w3.org/2000/svg" viewBox="0 0 223 223" width="223" height="223"><defs></defs><g transform="matrix(1,0,0,1,-16.052400643,-16.052400643)">
<g>
	<g>
		<path d="M118.52513506126537,19.973465326995978 C123.7532213059712,14.745379082290157 132.24677869402865,14.745379082290157 137.47486493873447,19.973465326995978 L236.026534673004,118.5251350612654 C241.25462091770981,123.75322130597122 241.25462091770981,132.24677869402868 236.026534673004,137.4748649387345 L137.47486493873458,236.02653467300402 C132.24677869402876,241.25462091770984 123.7532213059713,241.25462091770984 118.52513506126547,236.02653467300402 L19.97346532699595,137.47486493873458 C14.745379082290128,132.24677869402876 14.745379082290128,123.75322130597132 19.97346532699595,118.5251350612655 L118.52513506126537,19.973465326995978 Z" transform="matrix(1,0,0,1,0,0)" fill="#ffffff" stroke="#ffffff" stroke-width="2"/>
	</g>
	<g>
		<g transform="matrix(0.190664373,0,0,0.190664373,40.448547233,132.38125249)">
			<g>
				<path d="M325.8585453654343,-122.37802352792698 C325.8585453654343,-140.78735446527446 310.9345442410142,-155.71135558969456 292.5252133036667,-155.71135558969456 C274.1155485803212,-155.71135558969456 259.1918812418991,-140.78735446527446 259.1918812418991,-122.37802352792698 C259.1918812418991,-122.37802352792698 259.1918812418991,-105.7113574970432 259.1918812418991,-105.7113574970432 C259.1918812418991,-105.7113574970432 242.52521521101534,-105.7113574970432 242.52521521101534,-105.7113574970432 C224.11555048766985,-105.7113574970432 209.19188314924776,-90.7876901586211 209.19188314924776,-72.37802543527562 C209.19188314924776,-53.96801103136079 224.11555048766985,-39.04469337350804 242.52521521101534,-39.04469337350804 C242.52521521101534,-39.04469337350804 259.1918812418991,-39.04469337350804 259.1918812418991,-39.04469337350804 C259.1918812418991,-39.04469337350804 259.1918812418991,-22.37802734262425 259.1918812418991,-22.37802734262425 C259.1918812418991,-3.968012938709421 274.1155485803212,10.955304719143328 292.5252133036667,10.955304719143328 C310.9345442410142,10.955304719143328 325.8585453654343,-3.968012938709421 325.8585453654343,-22.37802734262425 C325.8585453654343,-22.37802734262425 325.8585453654343,-39.04469337350804 325.8585453654343,-39.04469337350804 C325.8585453654343,-39.04469337350804 342.5252272908894,-39.04469337350804 342.5252272908894,-39.04469337350804 C360.93454233366555,-39.04469337350804 375.858559352657,-53.96801103136079 375.858559352657,-72.37802543527562 C375.858559352657,-90.7876901586211 360.93454233366555,-105.7113574970432 342.5252272908894,-105.7113574970432 C342.5252272908894,-105.7113574970432 325.8585453654343,-105.7113574970432 325.8585453654343,-105.7113574970432 C325.8585453654343,-105.7113574970432 325.8585453654343,-122.37802352792698 325.8585453654343,-122.37802352792698 C325.8585453654343,-122.37802352792698 325.8585453654343,-122.37802352792698 325.8585453654343,-122.37802352792698 Z" fill="#000000"/>
			</g>
			<g>
				<path d="M659.1921997691081,-139.04468955881077 C659.1921997691081,-120.63502483546529 644.2688503221127,-105.7113574970432 625.8588677073406,-105.7113574970432 C607.4488850925684,-105.7113574970432 592.525535645573,-120.63502483546529 592.525535645573,-139.04468955881077 C592.525535645573,-157.45402049615825 607.4488850925684,-172.37802162057835 625.8588677073406,-172.37802162057835 C644.2688503221127,-172.37802162057835 659.1921997691081,-157.45402049615825 659.1921997691081,-139.04468955881077 C659.1921997691081,-139.04468955881077 659.1921997691081,-139.04468955881077 659.1921997691081,-139.04468955881077 Z" fill="#000000"/>
			</g>
			<g>
				<path d="M625.8588677073406,27.621970750027117 C644.2688503221127,27.621970750027117 659.1921997691081,12.698653092174368 659.1921997691081,-5.711361311740461 C659.1921997691081,-24.12137571565529 644.2688503221127,-39.04469337350804 625.8588677073406,-39.04469337350804 C607.4488850925684,-39.04469337350804 592.525535645573,-24.12137571565529 592.525535645573,-5.711361311740461 C592.525535645573,12.698653092174368 607.4488850925684,27.621970750027117 625.8588677073406,27.621970750027117 C625.8588677073406,27.621970750027117 625.8588677073406,27.621970750027117 625.8588677073406,27.621970750027117 Z" fill="#000000"/>
			</g>
			<g>
				<path d="M592.525535645573,-72.37802543527562 C592.525535645573,-53.96801103136079 577.6022179877202,-39.04469337350804 559.1922035838054,-39.04469337350804 C540.7821891798906,-39.04469337350804 525.8588715220378,-53.96801103136079 525.8588715220378,-72.37802543527562 C525.8588715220378,-90.7876901586211 540.7821891798906,-105.7113574970432 559.1922035838054,-105.7113574970432 C577.6022179877202,-105.7113574970432 592.525535645573,-90.7876901586211 592.525535645573,-72.37802543527562 C592.525535645573,-72.37802543527562 592.525535645573,-72.37802543527562 592.525535645573,-72.37802543527562 Z" fill="#000000"/>
			</g>
			<g>
				<path d="M692.5255318308757,-39.04469337350804 C710.9355144456479,-39.04469337350804 725.8588638926433,-53.96801103136079 725.8588638926433,-72.37802543527562 C725.8588638926433,-90.7876901586211 710.9355144456479,-105.7113574970432 692.5255318308757,-105.7113574970432 C674.1155492161035,-105.7113574970432 659.1921997691081,-90.7876901586211 659.1921997691081,-72.37802543527562 C659.1921997691081,-53.96801103136079 674.1155492161035,-39.04469337350804 692.5255318308757,-39.04469337350804 C692.5255318308757,-39.04469337350804 692.5255318308757,-39.04469337350804 692.5255318308757,-39.04469337350804 Z" fill="#000000"/>
			</g>
			<g>
				<path d="M459.1922073985026,-305.71134986764866 C398.78886268732657,-305.71134986764866 324.60454316005615,-297.10568721425955 266.45288700230793,-288.7346840647566 C190.6272145662553,-277.81934946171407 128.89088752474362,-221.81268160003003 112.85655522523138,-146.10135471015258 C103.8835531337474,-103.73302378141364 95.09021930297757,-53.63803973047163 93.07522078492383,-11.698019815463908 C91.63042213207649,18.371966016623787 88.4582551108528,60.391967414583064 85.09738773875455,100.69862939018947 C81.60075489878744,142.63527965607443 95.57488849301552,185.83532581899578 121.21855410007373,216.55864211118694 C147.3865498262905,247.91195563276358 188.83054785368512,269.04531409986464 236.64721199692957,255.66526395109338 C267.2635419294731,247.09529255763425 291.72821181327726,225.5786206082479 309.87555253133013,204.37532602727822 C328.4258842109795,182.7053032536636 343.18955679435584,158.03527550822707 353.7038793099329,137.96532744164085 C361.7992070142229,122.5119576189494 376.1698704268003,113.80529291201981 389.7052105375025,113.80529291201981 C389.7052105375025,113.80529291201981 528.6788863680761,113.80529291201981 528.6788863680761,113.80529291201981 C542.2121919736476,113.80529291201981 556.5855256742091,122.5119576189494 564.6788824516536,137.96532744164085 C575.1955255746454,158.03527550822707 589.9588802665951,182.7053032536636 608.5088622656751,204.37532602727822 C626.6555036225893,225.5786206082479 651.1188383624014,247.09529255763425 681.7355338700856,255.66526395109338 C729.5521900660444,269.04531409986464 770.9955046268717,247.91195563276358 797.1655348582192,216.55864211118694 C822.8088825738507,185.83532581899578 836.7821817030838,142.63527965607443 833.2855031662241,100.69862939018947 C829.9255179428349,60.391967414583064 826.7521985651895,18.371966016623787 825.3088443315121,-11.698019815463908 C823.2922046989681,-53.63803973047163 814.4988827891268,-103.73302378141364 805.5255071752165,-146.10135471015258 C789.4922080228409,-221.81268160003003 727.7555313007599,-277.81934946171407 651.9288892958559,-288.7346840647566 C593.7788543843837,-297.10568721425955 519.5955521096787,-305.71134986764866 459.1922073985026,-305.71134986764866 C459.1922073985026,-305.71134986764866 459.1922073985026,-305.71134986764866 459.1922073985026,-305.71134986764866 ZM275.95188019565484,-222.74834733073533 C333.44020820793065,-231.02368105538028 403.75219689943896,-239.0446857441135 459.1922073985026,-239.0446857441135 C514.6322178975663,-239.0446857441135 584.9422038730866,-231.02368105538028 642.4322008153524,-222.74801354473732 C691.3588702949767,-215.70501772474256 730.2288537568659,-179.8816898015399 740.3055033561961,-132.28901990481666 C749.0821677552797,-90.85635470678301 756.9655572454051,-44.96802790503773 758.7188556200911,-8.49802934712045 C760.2221641768394,22.821969152940596 763.4822043356819,65.83197982099534 766.8488652790313,106.23861865029119 C768.8988835113762,130.8086377528956 760.3322181887545,156.6486331050686 745.982217718911,173.84198165166833 C732.1555301156607,190.40863903972001 716.1555459848007,196.06863231339173 699.7021851012162,191.46531014198933 C687.51556294647,188.05198273720396 673.615506001943,177.92199095647754 659.1555150984698,161.02529868925137 C645.095558766325,144.601946756345 633.0055120270029,124.72530846632014 623.7321740628815,107.02864242386511 C606.0022247880536,73.17864142632186 570.7988646197248,47.13862878848465 528.6788863680761,47.13862878848465 C528.6788863680761,47.13862878848465 389.7052105375025,47.13862878848465 389.7052105375025,47.13862878848465 C347.58488260528446,47.13862878848465 312.382539689521,73.17864142632186 294.650206228993,107.02864242386511 C285.37821930343506,124.72530846632014 273.2872188898329,144.601946756345 259.22855001796614,161.02529868925137 C244.76655639850486,177.92199095647754 230.86788228168388,188.05198273720396 218.6798772992317,191.46531014198933 C202.22855092077788,196.06863231339173 186.22621439336052,190.40863903972001 172.40055198996123,173.84198165166833 C158.05088530611573,156.6486331050686 149.48488755549005,130.8086377528956 151.53355474927156,106.23861865029119 C154.90255219460704,65.83197982099534 158.1602161150351,22.821969152940596 159.66488365763252,-8.49802934712045 C161.4172204107528,-44.96802790503773 169.30188146658492,-90.85635470678301 178.07655109696606,-132.28901990481666 C188.15588687885173,-179.8816898015399 227.02454314403457,-215.70501772474256 275.95188019565484,-222.74834733073533 C275.95188019565484,-222.74834733073533 275.95188019565484,-222.74834733073533 275.95188019565484,-222.74834733073533 Z" fill="#000000"/>
			</g>
		</g>
	</g>
</g></g></svg>