<svg xmlns="http://www.w3.org/2000/svg" viewBox="0 0 223 223" width="223" height="223"><defs></defs><g transform="matrix(1,0,0,1,-16.052400643,-16.052400643)">
<g>
	<g>
		<path d="M118.52513506126537,19.973465326995978 C123.7532213059712,14.745379082290157 132.24677869402865,14.745379082290157 137.47486493873447,19.973465326995978 L236.026534673004,118.5251350612654 C241.25462091770981,123.75322130597122 241.25462091770981,132.24677869402868 236.026534673004,137.4748649387345 L137.47486493873458,236.02653467300402 C132.24677869402876,241.25462091770984 123.7532213059713,241.25462091770984 118.52513506126547,236.02653467300402 L19.97346532699595,137.47486493873458 C14.745379082290128,132.24677869402876 14.745379082290128,123.75322130597132 19.97346532699595,118.5251350612655 L118.52513506126537,19.973465326995978 Z" transform="matrix(1,0,0,1,0,0)" fill="#ffffff" stroke="#ffffff" stroke-width="2"/>
	</g>
	<g>
		<g transform="matrix(0.316699091,0,0,0.316699091,74.603925897,95.401846145)">
			<g>
				<path d="M238.60192783135506,102.93099911384985 C238.59858997137496,136.3243172878311 215.0085983480684,165.06767861811664 182.25192133429016,171.58098784841337 C149.498582180492,178.09432886785277 116.70525228521808,160.5609954404236 103.92859185341956,129.70766155472216 C91.150596277629,98.85432766902073 101.94857331322862,63.270991878386724 129.7152450241964,44.72100987930668 C157.4819167351642,26.168007911673214 194.48857959959503,29.8146676236384 218.10190445361957,53.43101244621636 C231.25192836604845,66.54431989886422 238.62856713291046,84.35765209490916 238.60192783135506,102.93099911384985 C238.60192783135506,102.93099911384985 238.60192783135506,102.93099911384985 238.60192783135506,102.93099911384985 C238.60192783135506,102.93099911384985 238.60192783135506,102.93099911384985 238.60192783135506,102.93099911384985 Z" transform="matrix(1,0,0,1,0,0)" fill="none" stroke="#000000" stroke-width="1.5" stroke-linecap="round" stroke-linejoin="round"/>
			</g>
			<g>
				<path d="M356.9352312193158,102.89765230319159 C356.9152676377206,89.09099185982183 345.7085775948443,77.91100469678628 331.90191715147455,77.93100006752417 C318.0952567081048,77.95099543826205 306.91526954506924,89.15765369199568 306.93523312666446,102.96434592450811 C306.93523312666446,102.96434592450811 356.9352312193158,102.89765230319159 356.9352312193158,102.89765230319159 C356.9352312193158,102.89765230319159 356.9352312193158,102.89765230319159 356.9352312193158,102.89765230319159 ZM266.4452431652943,200.7309958917022 C256.6719255652978,210.48431812096084 256.6519301945599,226.31098784599732 266.40191456383843,236.0876750951166 C276.15523679309706,245.86102448425578 291.98190651813354,245.880988065851 301.7585937672528,236.13100369657246 C301.7585937672528,236.13100369657246 266.4452431652943,200.7309958917022 266.4452431652943,200.7309958917022 C266.4452431652943,200.7309958917022 266.4452431652943,200.7309958917022 266.4452431652943,200.7309958917022 ZM306.93523312666446,102.89765230319159 C306.91526954506924,116.70434453570402 318.0952567081048,127.91100278943765 331.90191715147455,127.93099816017553 C345.7085775948443,127.95099353091342 356.9152676377206,116.77100636787787 356.9352312193158,102.96434592450811 C356.9352312193158,102.96434592450811 306.93523312666446,102.89765230319159 306.93523312666446,102.89765230319159 C306.93523312666446,102.89765230319159 306.93523312666446,102.89765230319159 306.93523312666446,102.89765230319159 ZM301.7585937672528,-30.268337896876744 C291.98190651813354,-40.01932362414931 276.15523679309706,-39.99999582540744 266.40191456383843,-30.225009295420875 C256.6519301945599,-20.45000687086298 256.6719255652978,-4.620984749269098 266.4452431652943,5.130334764001475 C266.4452431652943,5.130334764001475 301.7585937672528,-30.268337896876744 301.7585937672528,-30.268337896876744 C301.7585937672528,-30.268337896876744 301.7585937672528,-30.268337896876744 301.7585937672528,-30.268337896876744 ZM331.93523217299014,77.93100006752417 C318.1285717296204,77.93100006752417 306.93523312666446,89.12433867048009 306.93523312666446,102.93099911384985 C306.93523312666446,116.73765955721962 318.1285717296204,127.93099816017553 331.93523217299014,127.93099816017553 C331.93523217299014,127.93099816017553 331.93523217299014,77.93100006752417 331.93523217299014,77.93100006752417 C331.93523217299014,77.93100006752417 331.93523217299014,77.93100006752417 331.93523217299014,77.93100006752417 ZM401.9352422183591,127.93099816017553 C415.7419026617289,127.93099816017553 426.9352412646848,116.73765955721962 426.9352412646848,102.93099911384985 C426.9352412646848,89.12433867048009 415.7419026617289,77.93100006752417 401.9352422183591,77.93100006752417 C401.9352422183591,77.93100006752417 401.9352422183591,127.93099816017553 401.9352422183591,127.93099816017553 C401.9352422183591,127.93099816017553 401.9352422183591,127.93099816017553 401.9352422183591,127.93099816017553 ZM168.63526459664433,291.2643125471796 C182.4419250400141,291.2443489655844 193.62191220304965,280.0376589227081 193.60191683231176,266.2309984793383 C193.58192146157387,252.42433803596856 182.37526320784025,241.244350872933 168.56857097532782,241.26431445452823 C168.56857097532782,241.26431445452823 168.63526459664433,291.2643125471796 168.63526459664433,291.2643125471796 C168.63526459664433,291.2643125471796 168.63526459664433,291.2643125471796 168.63526459664433,291.2643125471796 ZM70.8012534361377,200.77432449315808 C61.049933922867126,191.00100689316156 45.220911801273246,190.98101152242367 35.44590937671535,200.7309958917022 C25.670922846728786,210.48431812096084 25.651595047986916,226.31098784599732 35.40258077525948,236.0876750951166 C35.40258077525948,236.0876750951166 70.8012534361377,200.77432449315808 70.8012534361377,200.77432449315808 C70.8012534361377,200.77432449315808 70.8012534361377,200.77432449315808 70.8012534361377,200.77432449315808 ZM168.63526459664433,241.26431445452823 C154.8285723641319,241.244350872933 143.62191411039828,252.42433803596856 143.6019187396604,266.2309984793383 C143.5819233689225,280.0376589227081 154.76191053195805,291.2443489655844 168.56857097532782,291.2643125471796 C168.56857097532782,291.2643125471796 168.63526459664433,241.26431445452823 168.63526459664433,241.26431445452823 C168.63526459664433,241.26431445452823 168.63526459664433,241.26431445452823 168.63526459664433,241.26431445452823 ZM301.8019223687087,236.0876750951166 C311.5519067379872,226.31098784599732 311.531943156392,210.48431812096084 301.7585937672528,200.7309958917022 C291.98190651813354,190.98101152242367 276.15523679309706,191.00100689316156 266.40191456383843,200.77432449315808 C266.40191456383843,200.77432449315808 301.8019223687087,236.0876750951166 301.8019223687087,236.0876750951166 C301.8019223687087,236.0876750951166 301.8019223687087,236.0876750951166 301.8019223687087,236.0876750951166 ZM193.60191683231176,266.2643135008539 C193.60191683231176,252.45765305748415 182.40857822935584,241.26431445452823 168.60191778598607,241.26431445452823 C154.7952573426163,241.26431445452823 143.6019187396604,252.45765305748415 143.6019187396604,266.2643135008539 C143.6019187396604,266.2643135008539 193.60191683231176,266.2643135008539 193.60191683231176,266.2643135008539 C193.60191683231176,266.2643135008539 193.60191683231176,266.2643135008539 193.60191683231176,266.2643135008539 ZM143.6019187396604,336.2643235462229 C143.6019187396604,350.07098398959266 154.7952573426163,361.2643225925486 168.60191778598607,361.2643225925486 C182.40857822935584,361.2643225925486 193.60191683231176,350.07098398959266 193.60191683231176,336.2643235462229 C193.60191683231176,336.2643235462229 143.6019187396604,336.2643235462229 143.6019187396604,336.2643235462229 C143.6019187396604,336.2643235462229 143.6019187396604,336.2643235462229 143.6019187396604,336.2643235462229 ZM-19.73141154191501,102.96434592450811 C-19.712735420597824,116.77100636787787 -8.504742022872165,127.95099353091342 5.302252206495609,127.93099816017553 C19.109262330434717,127.91100278943765 30.287262672053544,116.70434453570402 30.26858655073636,102.89765230319159 C30.26858655073636,102.89765230319159 -19.73141154191501,102.96434592450811 -19.73141154191501,102.96434592450811 C-19.73141154191501,102.96434592450811 -19.73141154191501,102.96434592450811 -19.73141154191501,102.96434592450811 ZM70.75792483468183,5.130334764001475 C80.53292725923973,-4.620984749269098 80.5522550579816,-20.45000687086298 70.8012534361377,-30.225009295420875 C61.049933922867126,-39.99999582540744 45.220911801273246,-40.01932362414931 35.44590937671535,-30.268337896876744 C35.44590937671535,-30.268337896876744 70.75792483468183,5.130334764001475 70.75792483468183,5.130334764001475 C70.75792483468183,5.130334764001475 70.75792483468183,5.130334764001475 70.75792483468183,5.130334764001475 ZM30.26858655073636,102.96434592450811 C30.287262672053544,89.15765369199568 19.109262330434717,77.95099543826205 5.302252206495609,77.93100006752417 C-8.504742022872165,77.91100469678628 -19.712735420597824,89.09099185982183 -19.73141154191501,102.89765230319159 C-19.73141154191501,102.89765230319159 30.26858655073636,102.96434592450811 30.26858655073636,102.96434592450811 C30.26858655073636,102.96434592450811 30.26858655073636,102.96434592450811 30.26858655073636,102.96434592450811 ZM35.44590937671535,236.13100369657246 C45.220911801273246,245.880988065851 61.049933922867126,245.86102448425578 70.8012534361377,236.0876750951166 C80.5522550579816,226.31098784599732 80.53292725923973,210.48431812096084 70.75792483468183,200.7309958917022 C70.75792483468183,200.7309958917022 35.44590937671535,236.13100369657246 35.44590937671535,236.13100369657246 C35.44590937671535,236.13100369657246 35.44590937671535,236.13100369657246 35.44590937671535,236.13100369657246 ZM5.268587504410675,127.93099816017553 C19.075597628349783,127.93099816017553 30.26858655073636,116.73765955721962 30.26858655073636,102.93099911384985 C30.26858655073636,89.12433867048009 19.075597628349783,77.93100006752417 5.268587504410675,77.93100006752417 C5.268587504410675,77.93100006752417 5.268587504410675,127.93099816017553 5.268587504410675,127.93099816017553 C5.268587504410675,127.93099816017553 5.268587504410675,127.93099816017553 5.268587504410675,127.93099816017553 ZM-64.73140664638697,77.93100006752417 C-78.53840087575475,77.93100006752417 -89.73140569271266,89.12433867048009 -89.73140569271266,102.93099911384985 C-89.73140569271266,116.73765955721962 -78.53840087575475,127.93099816017553 -64.73140664638697,127.93099816017553 C-64.73140664638697,127.93099816017553 -64.73140664638697,77.93100006752417 -64.73140664638697,77.93100006752417 C-64.73140664638697,77.93100006752417 -64.73140664638697,77.93100006752417 -64.73140664638697,77.93100006752417 ZM168.56857097532782,-35.402332121399866 C182.37526320784025,-35.38365600008268 193.58192146157387,-46.56165634170151 193.60191683231176,-60.368666465640615 C193.62191220304965,-74.17566069500839 182.4419250400141,-85.38365409273405 168.63526459664433,-85.40233021405123 C168.63526459664433,-85.40233021405123 168.56857097532782,-35.402332121399866 168.56857097532782,-35.402332121399866 C168.56857097532782,-35.402332121399866 168.56857097532782,-35.402332121399866 168.56857097532782,-35.402332121399866 ZM35.40258077525948,-30.225009295420875 C25.651595047986916,-20.45000687086298 25.670922846728786,-4.620984749269098 35.44590937671535,5.130334764001475 C45.220911801273246,14.881336385845373 61.049933922867126,14.862008587103503 70.8012534361377,5.087006162545606 C70.8012534361377,5.087006162545606 35.40258077525948,-30.225009295420875 35.40258077525948,-30.225009295420875 C35.40258077525948,-30.225009295420875 35.40258077525948,-30.225009295420875 35.40258077525948,-30.225009295420875 ZM168.56857097532782,-85.40233021405123 C154.76191053195805,-85.38365409273405 143.5819233689225,-74.17566069500839 143.6019187396604,-60.368666465640615 C143.62191411039828,-46.56165634170151 154.8285723641319,-35.38365600008268 168.63526459664433,-35.402332121399866 C168.63526459664433,-35.402332121399866 168.56857097532782,-85.40233021405123 168.56857097532782,-85.40233021405123 C168.56857097532782,-85.40233021405123 168.56857097532782,-85.40233021405123 168.56857097532782,-85.40233021405123 ZM266.40191456383843,5.087006162545606 C276.15523679309706,14.862008587103503 291.98190651813354,14.881336385845373 301.7585937672528,5.130334764001475 C311.531943156392,-4.620984749269098 311.5519067379872,-20.45000687086298 301.8019223687087,-30.225009295420875 C301.8019223687087,-30.225009295420875 266.40191456383843,5.087006162545606 266.40191456383843,5.087006162545606 C266.40191456383843,5.087006162545606 266.40191456383843,5.087006162545606 266.40191456383843,5.087006162545606 ZM143.6019187396604,-60.40233116772555 C143.6019187396604,-46.59532104378644 154.7952573426163,-35.402332121399866 168.60191778598607,-35.402332121399866 C182.40857822935584,-35.402332121399866 193.60191683231176,-46.59532104378644 193.60191683231176,-60.40233116772555 C193.60191683231176,-60.40233116772555 143.6019187396604,-60.40233116772555 143.6019187396604,-60.40233116772555 C143.6019187396604,-60.40233116772555 143.6019187396604,-60.40233116772555 143.6019187396604,-60.40233116772555 ZM193.60191683231176,-130.4023253185232 C193.60191683231176,-144.20931954789097 182.40857822935584,-155.40232436484888 168.60191778598607,-155.40232436484888 C154.7952573426163,-155.40232436484888 143.6019187396604,-144.20931954789097 143.6019187396604,-130.4023253185232 C143.6019187396604,-130.4023253185232 193.60191683231176,-130.4023253185232 193.60191683231176,-130.4023253185232 C193.60191683231176,-130.4023253185232 193.60191683231176,-130.4023253185232 193.60191683231176,-130.4023253185232 ZM21.279586573204938,-79.7466602637823 C11.51658455000404,-89.5096622869832 -4.312739568445181,-89.5096622869832 -14.075741591646079,-79.7466602637823 C-23.838743614846976,-69.9836582405814 -23.838743614846976,-54.154334122132184 -14.075741591646079,-44.39133209893129 C-14.075741591646079,-44.39133209893129 21.279586573204938,-79.7466602637823 21.279586573204938,-79.7466602637823 C21.279586573204938,-79.7466602637823 21.279586573204938,-79.7466602637823 21.279586573204938,-79.7466602637823 ZM35.42426097055875,5.108654568702207 C45.18724709918831,14.871672486474438 61.01658711220887,14.871672486474438 70.77957324083843,5.108654568702207 C80.54259115861066,-4.654331559927357 80.54259115861066,-20.483671572947912 70.77957324083843,-30.246657701577476 C70.77957324083843,-30.246657701577476 35.42426097055875,5.108654568702207 35.42426097055875,5.108654568702207 C35.42426097055875,5.108654568702207 35.42426097055875,5.108654568702207 35.42426097055875,5.108654568702207 ZM315.9252662513326,285.60768892263064 C325.6886020605315,295.3709611535442 341.51527178556796,295.3709611535442 351.27860759476687,285.60768892263064 C361.04187982568044,275.84435311343174 361.04187982568044,260.01768338839526 351.27860759476687,250.25434757919635 C351.27860759476687,250.25434757919635 315.9252662513326,285.60768892263064 315.9252662513326,285.60768892263064 C315.9252662513326,285.60768892263064 315.9252662513326,285.60768892263064 315.9252662513326,285.60768892263064 ZM301.7785891379907,200.7543291224202 C292.0152533287918,190.99099331322128 276.1885836037553,190.99099331322128 266.4252477945564,200.7543291224202 C256.6619119853575,210.5176649316191 256.6619119853575,226.34433465665558 266.4252477945564,236.10767046585448 C266.4252477945564,236.10767046585448 301.7785891379907,200.7543291224202 301.7785891379907,200.7543291224202 C301.7785891379907,200.7543291224202 301.7785891379907,200.7543291224202 301.7785891379907,200.7543291224202 ZM-14.075741591646079,250.25434757919635 C-23.838743614846976,260.01768338839526 -23.838743614846976,275.84435311343174 -14.075741591646079,285.60768892263064 C-4.312739568445181,295.3709611535442 11.51658455000404,295.3709611535442 21.279586573204938,285.60768892263064 C21.279586573204938,285.60768892263064 -14.075741591646079,250.25434757919635 -14.075741591646079,250.25434757919635 C-14.075741591646079,250.25434757919635 -14.075741591646079,250.25434757919635 -14.075741591646079,250.25434757919635 ZM70.77957324083843,236.10767046585448 C80.54259115861066,226.34433465665558 80.54259115861066,210.5176649316191 70.77957324083843,200.7543291224202 C61.01658711220887,190.99099331322128 45.18724709918831,190.99099331322128 35.42426097055875,200.7543291224202 C35.42426097055875,200.7543291224202 70.77957324083843,236.10767046585448 70.77957324083843,236.10767046585448 C70.77957324083843,236.10767046585448 70.77957324083843,236.10767046585448 70.77957324083843,236.10767046585448 ZM351.27860759476687,-44.39133209893129 C361.04187982568044,-54.154334122132184 361.04187982568044,-69.9836582405814 351.27860759476687,-79.7466602637823 C341.51527178556796,-89.5096622869832 325.6886020605315,-89.5096622869832 315.9252662513326,-79.7466602637823 C315.9252662513326,-79.7466602637823 351.27860759476687,-44.39133209893129 351.27860759476687,-44.39133209893129 C351.27860759476687,-44.39133209893129 351.27860759476687,-44.39133209893129 351.27860759476687,-44.39133209893129 ZM266.4252477945564,-30.246657701577476 C256.6619119853575,-20.483671572947912 256.6619119853575,-4.654331559927357 266.4252477945564,5.108654568702207 C276.1885836037553,14.871672486474438 292.0152533287918,14.871672486474438 301.7785891379907,5.108654568702207 C301.7785891379907,5.108654568702207 266.4252477945564,-30.246657701577476 266.4252477945564,-30.246657701577476 C266.4252477945564,-30.246657701577476 266.4252477945564,-30.246657701577476 266.4252477945564,-30.246657701577476 ZM70.77957324083843,-30.246657701577476 C61.01658711220887,-40.00965972477837 45.18724709918831,-40.00965972477837 35.42426097055875,-30.246657701577476 C25.66125894735785,-20.483671572947912 25.66125894735785,-4.654331559927357 35.42426097055875,5.108654568702207 C35.42426097055875,5.108654568702207 70.77957324083843,-30.246657701577476 70.77957324083843,-30.246657701577476 C70.77957324083843,-30.246657701577476 70.77957324083843,-30.246657701577476 70.77957324083843,-30.246657701577476 ZM101.42424319407007,71.10765132879084 C111.18859625583434,80.87098713798974 127.01526598087082,80.87098713798974 136.77857000092706,71.10765132879084 C146.54190581012597,61.3443473087346 146.54190581012597,45.51767758369812 136.77857000092706,35.75332452193385 C136.77857000092706,35.75332452193385 101.42424319407007,71.10765132879084 101.42424319407007,71.10765132879084 C101.42424319407007,71.10765132879084 101.42424319407007,71.10765132879084 101.42424319407007,71.10765132879084 ZM35.42426097055875,200.7543291224202 C25.66125894735785,210.5176649316191 25.66125894735785,226.34433465665558 35.42426097055875,236.10767046585448 C45.18724709918831,245.8710062750534 61.01658711220887,245.8710062750534 70.77957324083843,236.10767046585448 C70.77957324083843,236.10767046585448 35.42426097055875,200.7543291224202 35.42426097055875,200.7543291224202 C35.42426097055875,200.7543291224202 35.42426097055875,200.7543291224202 35.42426097055875,200.7543291224202 ZM136.77857000092706,170.1076564532005 C146.54190581012597,160.34432064400158 146.54190581012597,144.5176509189651 136.77857000092706,134.75434689890886 C127.01526598087082,124.99101108970996 111.18859625583434,124.99101108970996 101.42424319407007,134.75434689890886 C101.42424319407007,134.75434689890886 136.77857000092706,170.1076564532005 136.77857000092706,170.1076564532005 C136.77857000092706,170.1076564532005 136.77857000092706,170.1076564532005 136.77857000092706,170.1076564532005 ZM266.4252477945564,236.10767046585448 C276.1885836037553,245.8710062750534 292.0152533287918,245.8710062750534 301.7785891379907,236.10767046585448 C311.5419249471896,226.34433465665558 311.5419249471896,210.5176649316191 301.7785891379907,200.7543291224202 C301.7785891379907,200.7543291224202 266.4252477945564,236.10767046585448 266.4252477945564,236.10767046585448 C266.4252477945564,236.10767046585448 266.4252477945564,236.10767046585448 266.4252477945564,236.10767046585448 ZM235.77857512533672,134.75434689890886 C226.0152393161378,124.99101108970996 210.18856959110133,124.99101108970996 200.4252655710451,134.75434689890886 C190.66192976184618,144.5176509189651 190.66192976184618,160.34432064400158 200.4252655710451,170.1076564532005 C200.4252655710451,170.1076564532005 235.77857512533672,134.75434689890886 235.77857512533672,134.75434689890886 C235.77857512533672,134.75434689890886 235.77857512533672,134.75434689890886 235.77857512533672,134.75434689890886 ZM301.7785891379907,5.108654568702207 C311.5419249471896,-4.654331559927357 311.5419249471896,-20.483671572947912 301.7785891379907,-30.246657701577476 C292.0152533287918,-40.00965972477837 276.1885836037553,-40.00965972477837 266.4252477945564,-30.246657701577476 C266.4252477945564,-30.246657701577476 301.7785891379907,5.108654568702207 301.7785891379907,5.108654568702207 C301.7785891379907,5.108654568702207 301.7785891379907,5.108654568702207 301.7785891379907,5.108654568702207 ZM200.4252655710451,35.75332452193385 C190.66192976184618,45.51767758369812 190.66192976184618,61.3443473087346 200.4252655710451,71.10765132879084 C210.18856959110133,80.87098713798974 226.0152393161378,80.87098713798974 235.77857512533672,71.10765132879084 C235.77857512533672,71.10765132879084 200.4252655710451,35.75332452193385 200.4252655710451,35.75332452193385 C200.4252655710451,35.75332452193385 200.4252655710451,35.75332452193385 200.4252655710451,35.75332452193385 ZM306.93523312666446,102.96434592450811 C306.9852692372232,139.64434355888721 292.4119182509975,174.82767656733546 266.4452431652943,200.7309958917022 C266.4452431652943,200.7309958917022 301.7585937672528,236.13100369657246 301.7585937672528,236.13100369657246 C337.14521834306004,200.83100453453432 357.00192484063234,152.88099288508516 356.9352312193158,102.89765230319159 C356.9352312193158,102.89765230319159 306.93523312666446,102.96434592450811 306.93523312666446,102.96434592450811 C306.93523312666446,102.96434592450811 306.93523312666446,102.96434592450811 306.93523312666446,102.96434592450811 ZM356.9352312193158,102.96434592450811 C357.00192484063234,52.98100534261454 337.14521834306004,5.032328837157422 301.7585937672528,-30.268337896876744 C301.7585937672528,-30.268337896876744 266.4452431652943,5.130334764001475 266.4452431652943,5.130334764001475 C292.4119182509975,31.034003768937566 306.9852692372232,66.21765466881249 306.93523312666446,102.89765230319159 C306.93523312666446,102.89765230319159 356.9352312193158,102.96434592450811 356.9352312193158,102.96434592450811 C356.9352312193158,102.96434592450811 356.9352312193158,102.96434592450811 356.9352312193158,102.96434592450811 ZM331.93523217299014,127.93099816017553 C331.93523217299014,127.93099816017553 401.9352422183591,127.93099816017553 401.9352422183591,127.93099816017553 C401.9352422183591,127.93099816017553 401.9352422183591,77.93100006752417 401.9352422183591,77.93100006752417 C401.9352422183591,77.93100006752417 331.93523217299014,77.93100006752417 331.93523217299014,77.93100006752417 C331.93523217299014,77.93100006752417 331.93523217299014,127.93099816017553 331.93523217299014,127.93099816017553 C331.93523217299014,127.93099816017553 331.93523217299014,127.93099816017553 331.93523217299014,127.93099816017553 ZM168.56857097532782,241.26431445452823 C131.8885733409487,241.31435056508695 96.70492244107379,226.74099957886125 70.8012534361377,200.77432449315808 C70.8012534361377,200.77432449315808 35.40258077525948,236.0876750951166 35.40258077525948,236.0876750951166 C70.70324750929365,271.4742996709238 118.65192401475076,291.3310061684961 168.63526459664433,291.2643125471796 C168.63526459664433,291.2643125471796 168.56857097532782,241.26431445452823 168.56857097532782,241.26431445452823 C168.56857097532782,241.26431445452823 168.56857097532782,241.26431445452823 168.56857097532782,241.26431445452823 ZM168.56857097532782,291.2643125471796 C218.5519115572214,291.3310061684961 266.50192320667054,271.4742996709238 301.8019223687087,236.0876750951166 C301.8019223687087,236.0876750951166 266.40191456383843,200.77432449315808 266.40191456383843,200.77432449315808 C240.49859523947168,226.74099957886125 205.31526223102344,241.31435056508695 168.63526459664433,241.26431445452823 C168.63526459664433,241.26431445452823 168.56857097532782,291.2643125471796 168.56857097532782,291.2643125471796 C168.56857097532782,291.2643125471796 168.56857097532782,291.2643125471796 168.56857097532782,291.2643125471796 ZM143.6019187396604,266.2643135008539 C143.6019187396604,266.2643135008539 143.6019187396604,336.2643235462229 143.6019187396604,336.2643235462229 C143.6019187396604,336.2643235462229 193.60191683231176,336.2643235462229 193.60191683231176,336.2643235462229 C193.60191683231176,336.2643235462229 193.60191683231176,266.2643135008539 193.60191683231176,266.2643135008539 C193.60191683231176,266.2643135008539 143.6019187396604,266.2643135008539 143.6019187396604,266.2643135008539 C143.6019187396604,266.2643135008539 143.6019187396604,266.2643135008539 143.6019187396604,266.2643135008539 ZM30.26858655073636,102.89765230319159 C30.219249801316323,66.21765466881249 44.79093185755198,31.034003768937566 70.75792483468183,5.130334764001475 C70.75792483468183,5.130334764001475 35.44590937671535,-30.268337896876744 35.44590937671535,-30.268337896876744 C0.05891922576745401,5.032328837157422 -19.798740946084877,52.98100534261454 -19.73141154191501,102.96434592450811 C-19.73141154191501,102.96434592450811 30.26858655073636,102.89765230319159 30.26858655073636,102.89765230319159 C30.26858655073636,102.89765230319159 30.26858655073636,102.89765230319159 30.26858655073636,102.89765230319159 ZM-19.73141154191501,102.89765230319159 C-19.798740946084877,152.88099288508516 0.05891922576745401,200.83100453453432 35.44590937671535,236.13100369657246 C35.44590937671535,236.13100369657246 70.75792483468183,200.7309958917022 70.75792483468183,200.7309958917022 C44.79093185755198,174.82767656733546 30.219249801316323,139.64434355888721 30.26858655073636,102.96434592450811 C30.26858655073636,102.96434592450811 -19.73141154191501,102.89765230319159 -19.73141154191501,102.89765230319159 C-19.73141154191501,102.89765230319159 -19.73141154191501,102.89765230319159 -19.73141154191501,102.89765230319159 ZM5.268587504410675,77.93100006752417 C5.268587504410675,77.93100006752417 -64.73140664638697,77.93100006752417 -64.73140664638697,77.93100006752417 C-64.73140664638697,77.93100006752417 -64.73140664638697,127.93099816017553 -64.73140664638697,127.93099816017553 C-64.73140664638697,127.93099816017553 5.268587504410675,127.93099816017553 5.268587504410675,127.93099816017553 C5.268587504410675,127.93099816017553 5.268587504410675,77.93100006752417 5.268587504410675,77.93100006752417 C5.268587504410675,77.93100006752417 5.268587504410675,77.93100006752417 5.268587504410675,77.93100006752417 ZM168.63526459664433,-85.40233021405123 C118.65192401475076,-85.4696596182211 70.70324750929365,-65.61199944636877 35.40258077525948,-30.225009295420875 C35.40258077525948,-30.225009295420875 70.8012534361377,5.087006162545606 70.8012534361377,5.087006162545606 C96.70492244107379,-20.879986814584242 131.8885733409487,-35.4516688708199 168.56857097532782,-35.402332121399866 C168.56857097532782,-35.402332121399866 168.63526459664433,-85.40233021405123 168.63526459664433,-85.40233021405123 C168.63526459664433,-85.40233021405123 168.63526459664433,-85.40233021405123 168.63526459664433,-85.40233021405123 ZM168.63526459664433,-35.402332121399866 C205.31526223102344,-35.4516688708199 240.49859523947168,-20.879986814584242 266.40191456383843,5.087006162545606 C266.40191456383843,5.087006162545606 301.8019223687087,-30.225009295420875 301.8019223687087,-30.225009295420875 C266.50192320667054,-65.61199944636877 218.5519115572214,-85.4696596182211 168.56857097532782,-85.40233021405123 C168.56857097532782,-85.40233021405123 168.63526459664433,-35.402332121399866 168.63526459664433,-35.402332121399866 C168.63526459664433,-35.402332121399866 168.63526459664433,-35.402332121399866 168.63526459664433,-35.402332121399866 ZM193.60191683231176,-60.40233116772555 C193.60191683231176,-60.40233116772555 193.60191683231176,-130.4023253185232 193.60191683231176,-130.4023253185232 C193.60191683231176,-130.4023253185232 143.6019187396604,-130.4023253185232 143.6019187396604,-130.4023253185232 C143.6019187396604,-130.4023253185232 143.6019187396604,-60.40233116772555 143.6019187396604,-60.40233116772555 C143.6019187396604,-60.40233116772555 193.60191683231176,-60.40233116772555 193.60191683231176,-60.40233116772555 C193.60191683231176,-60.40233116772555 193.60191683231176,-60.40233116772555 193.60191683231176,-60.40233116772555 ZM-14.075741591646079,-44.39133209893129 C-14.075741591646079,-44.39133209893129 35.42426097055875,5.108654568702207 35.42426097055875,5.108654568702207 C35.42426097055875,5.108654568702207 70.77957324083843,-30.246657701577476 70.77957324083843,-30.246657701577476 C70.77957324083843,-30.246657701577476 21.279586573204938,-79.7466602637823 21.279586573204938,-79.7466602637823 C21.279586573204938,-79.7466602637823 -14.075741591646079,-44.39133209893129 -14.075741591646079,-44.39133209893129 C-14.075741591646079,-44.39133209893129 -14.075741591646079,-44.39133209893129 -14.075741591646079,-44.39133209893129 ZM351.27860759476687,250.25434757919635 C351.27860759476687,250.25434757919635 301.7785891379907,200.7543291224202 301.7785891379907,200.7543291224202 C301.7785891379907,200.7543291224202 266.4252477945564,236.10767046585448 266.4252477945564,236.10767046585448 C266.4252477945564,236.10767046585448 315.9252662513326,285.60768892263064 315.9252662513326,285.60768892263064 C315.9252662513326,285.60768892263064 351.27860759476687,250.25434757919635 351.27860759476687,250.25434757919635 C351.27860759476687,250.25434757919635 351.27860759476687,250.25434757919635 351.27860759476687,250.25434757919635 ZM21.279586573204938,285.60768892263064 C21.279586573204938,285.60768892263064 70.77957324083843,236.10767046585448 70.77957324083843,236.10767046585448 C70.77957324083843,236.10767046585448 35.42426097055875,200.7543291224202 35.42426097055875,200.7543291224202 C35.42426097055875,200.7543291224202 -14.075741591646079,250.25434757919635 -14.075741591646079,250.25434757919635 C-14.075741591646079,250.25434757919635 21.279586573204938,285.60768892263064 21.279586573204938,285.60768892263064 C21.279586573204938,285.60768892263064 21.279586573204938,285.60768892263064 21.279586573204938,285.60768892263064 ZM315.9252662513326,-79.7466602637823 C315.9252662513326,-79.7466602637823 266.4252477945564,-30.246657701577476 266.4252477945564,-30.246657701577476 C266.4252477945564,-30.246657701577476 301.7785891379907,5.108654568702207 301.7785891379907,5.108654568702207 C301.7785891379907,5.108654568702207 351.27860759476687,-44.39133209893129 351.27860759476687,-44.39133209893129 C351.27860759476687,-44.39133209893129 315.9252662513326,-79.7466602637823 315.9252662513326,-79.7466602637823 C315.9252662513326,-79.7466602637823 315.9252662513326,-79.7466602637823 315.9252662513326,-79.7466602637823 ZM35.42426097055875,5.108654568702207 C35.42426097055875,5.108654568702207 101.42424319407007,71.10765132879084 101.42424319407007,71.10765132879084 C101.42424319407007,71.10765132879084 136.77857000092706,35.75332452193385 136.77857000092706,35.75332452193385 C136.77857000092706,35.75332452193385 70.77957324083843,-30.246657701577476 70.77957324083843,-30.246657701577476 C70.77957324083843,-30.246657701577476 35.42426097055875,5.108654568702207 35.42426097055875,5.108654568702207 C35.42426097055875,5.108654568702207 35.42426097055875,5.108654568702207 35.42426097055875,5.108654568702207 ZM70.77957324083843,236.10767046585448 C70.77957324083843,236.10767046585448 136.77857000092706,170.1076564532005 136.77857000092706,170.1076564532005 C136.77857000092706,170.1076564532005 101.42424319407007,134.75434689890886 101.42424319407007,134.75434689890886 C101.42424319407007,134.75434689890886 35.42426097055875,200.7543291224202 35.42426097055875,200.7543291224202 C35.42426097055875,200.7543291224202 70.77957324083843,236.10767046585448 70.77957324083843,236.10767046585448 C70.77957324083843,236.10767046585448 70.77957324083843,236.10767046585448 70.77957324083843,236.10767046585448 ZM301.7785891379907,200.7543291224202 C301.7785891379907,200.7543291224202 235.77857512533672,134.75434689890886 235.77857512533672,134.75434689890886 C235.77857512533672,134.75434689890886 200.4252655710451,170.1076564532005 200.4252655710451,170.1076564532005 C200.4252655710451,170.1076564532005 266.4252477945564,236.10767046585448 266.4252477945564,236.10767046585448 C266.4252477945564,236.10767046585448 301.7785891379907,200.7543291224202 301.7785891379907,200.7543291224202 C301.7785891379907,200.7543291224202 301.7785891379907,200.7543291224202 301.7785891379907,200.7543291224202 ZM266.4252477945564,-30.246657701577476 C266.4252477945564,-30.246657701577476 200.4252655710451,35.75332452193385 200.4252655710451,35.75332452193385 C200.4252655710451,35.75332452193385 235.77857512533672,71.10765132879084 235.77857512533672,71.10765132879084 C235.77857512533672,71.10765132879084 301.7785891379907,5.108654568702207 301.7785891379907,5.108654568702207 C301.7785891379907,5.108654568702207 266.4252477945564,-30.246657701577476 266.4252477945564,-30.246657701577476 C266.4252477945564,-30.246657701577476 266.4252477945564,-30.246657701577476 266.4252477945564,-30.246657701577476 Z" fill="#000000"/>
			</g>
		</g>
	</g>
</g></g></svg>