<svg xmlns="http://www.w3.org/2000/svg" viewBox="0 0 223 223" width="223" height="223"><defs></defs><g transform="matrix(1,0,0,1,-16.052399755,-16.052399755)">
<g>
	<g>
		<g transform="matrix(1,0,0,1,-98.616904181,177.812244782)">
			<g>
				<g>
					<g>
						<path d="M217.14204196286624,-157.8387808891412 C222.37012271237796,-163.0668664070245 230.8636835033936,-163.0668664070245 236.09177188229984,-157.8387808891412 C236.09177188229984,-157.8387808891412 334.64343814206546,-59.287106999981035 334.64343814206546,-59.287106999981035 C339.8715265209717,-54.059026250469316 339.8715265209717,-45.56546545945369 334.64343814206546,-40.33737708054744 C334.64343814206546,-40.33737708054744 236.09177188229984,58.214289179218184 236.09177188229984,58.214289179218184 C230.8636835033936,63.442377558124434 222.37012271237796,63.442377558124434 217.14204196286624,58.214289179218184 C217.14204196286624,58.214289179218184 118.59036807370609,-40.33737708054744 118.59036807370609,-40.33737708054744 C113.36228255582279,-45.56546545945369 113.36228255582279,-54.059026250469316 118.59036807370609,-59.287106999981035 C118.59036807370609,-59.287106999981035 217.14204196286624,-157.8387808891412 217.14204196286624,-157.8387808891412 C217.14204196286624,-157.8387808891412 217.14204196286624,-157.8387808891412 217.14204196286624,-157.8387808891412 Z" fill="#ffffff" stroke="#ffffff" stroke-width="2"/>
					</g>
				</g>
				<g>
					<g>
						<g>
							<g>
								<path d="M248.78584575461315,-49.812242397784786 C248.78478744925138,-39.23661141498545 241.313861964532,-30.13361475930654 230.93985023426063,-28.070851965664616 C220.56689680935102,-26.00808433957812 210.18127996343452,-31.56087726431909 206.13492189938876,-41.33209952328437 C202.08814341266503,-51.10332178224965 205.5078518103192,-62.37253058068316 214.30153093746554,-68.2472935819633 C223.09521248083416,-74.12301159510244 234.81519050104504,-72.96811835146312 242.29350479351848,-65.48884361063054 C246.45810552762993,-61.335870946275946 248.79428320283984,-55.69440507981929 248.78584575461315,-49.812242397784786 C248.78584575461315,-49.812242397784786 248.78584575461315,-49.812242397784786 248.78584575461315,-49.812242397784786 C248.78584575461315,-49.812242397784786 248.78584575461315,-49.812242397784786 248.78584575461315,-49.812242397784786 C248.78584575461315,-49.812242397784786 248.78584575461315,-49.812242397784786 248.78584575461315,-49.812242397784786 Z" transform="matrix(1,0,0,1,0,0)" fill="none" stroke="#000000" stroke-width="1.5" stroke-linecap="round" stroke-linejoin="round"/>
							</g>
						</g>
						<g>
							<g>
								<path d="M286.26189801302786,-49.82280370540187 C286.25556751063556,-54.19536144310044 282.70642691750396,-57.73605250689391 278.3338667635831,-57.72971958827932 C273.96130660966224,-57.723386669664734 270.42062279453563,-54.174248492755424 270.4269436320388,-49.801681090167705 C270.4269436320388,-49.801681090167705 286.26189801302786,-49.82280370540187 286.26189801302786,-49.82280370540187 C286.26189801302786,-49.82280370540187 286.26189801302786,-49.82280370540187 286.26189801302786,-49.82280370540187 C286.26189801302786,-49.82280370540187 286.26189801302786,-49.82280370540187 286.26189801302786,-49.82280370540187 ZM257.60380066707836,-18.83907066208124 C254.508600587476,-15.750205917315753 254.50226042019455,-10.737912253318456 257.5900765244874,-7.641644203465177 C260.6789461016975,-4.546434458973664 265.6912349332502,-4.5401136214705105 268.78750781554805,-7.627924893318806 C268.78750781554805,-7.627924893318806 257.60380066707836,-18.83907066208124 257.60380066707836,-18.83907066208124 C257.60380066707836,-18.83907066208124 257.60380066707836,-18.83907066208124 257.60380066707836,-18.83907066208124 C257.60380066707836,-18.83907066208124 257.60380066707836,-18.83907066208124 257.60380066707836,-18.83907066208124 ZM270.4269436320388,-49.82280370540187 C270.42062279453563,-45.45023630281415 273.96130660966224,-41.90109812590484 278.3338667635831,-41.89476520729025 C282.70642691750396,-41.88843228867566 286.25556751063556,-45.42912576869142 286.26189801302786,-49.801681090167705 C286.26189801302786,-49.801681090167705 270.4269436320388,-49.82280370540187 270.4269436320388,-49.82280370540187 C270.4269436320388,-49.82280370540187 270.4269436320388,-49.82280370540187 270.4269436320388,-49.82280370540187 C270.4269436320388,-49.82280370540187 270.4269436320388,-49.82280370540187 270.4269436320388,-49.82280370540187 ZM268.78750781554805,-91.99635089902293 C265.6912349332502,-95.08447990410198 260.6789461016975,-95.07835840493752 257.5900765244874,-91.98262917265427 C254.50226042019455,-88.88689450387088 254.508600587476,-83.87385770050639 257.60380066707836,-80.78562374077174 C257.60380066707836,-80.78562374077174 268.78750781554805,-91.99635089902293 268.78750781554805,-91.99635089902293 C268.78750781554805,-91.99635089902293 268.78750781554805,-91.99635089902293 268.78750781554805,-91.99635089902293 C268.78750781554805,-91.99635089902293 268.78750781554805,-91.99635089902293 268.78750781554805,-91.99635089902293 ZM278.3444208225333,-57.72971958827932 C273.97186066861246,-57.72971958827932 270.4269436320388,-54.18480013548336 270.4269436320388,-49.812242397784786 C270.4269436320388,-45.439684660086215 273.97186066861246,-41.89476520729025 278.3444208225333,-41.89476520729025 C278.3444208225333,-41.89476520729025 278.3444208225333,-57.72971958827932 278.3444208225333,-57.72971958827932 C278.3444208225333,-57.72971958827932 278.3444208225333,-57.72971958827932 278.3444208225333,-57.72971958827932 C278.3444208225333,-57.72971958827932 278.3444208225333,-57.72971958827932 278.3444208225333,-57.72971958827932 ZM300.513356955918,-41.89476520729025 C304.8859171098389,-41.89476520729025 308.43083414641256,-45.439684660086215 308.43083414641256,-49.812242397784786 C308.43083414641256,-54.18480013548336 304.8859171098389,-57.72971958827932 300.513356955918,-57.72971958827932 C300.513356955918,-57.72971958827932 300.513356955918,-41.89476520729025 300.513356955918,-41.89476520729025 C300.513356955918,-41.89476520729025 300.513356955918,-41.89476520729025 300.513356955918,-41.89476520729025 C300.513356955918,-41.89476520729025 300.513356955918,-41.89476520729025 300.513356955918,-41.89476520729025 ZM226.62746851262324,9.83274599401463 C231.00002383409952,9.826425156511476 234.54071731411528,6.277274898490731 234.5343819792784,1.9047147445698727 C234.5280514768861,-2.4678405769064113 230.9789108837545,-6.0085292244775985 226.60634589738908,-6.002208386974445 C226.60634589738908,-6.002208386974445 226.62746851262324,9.83274599401463 226.62746851262324,9.83274599401463 C226.62746851262324,9.83274599401463 226.62746851262324,9.83274599401463 226.62746851262324,9.83274599401463 C226.62746851262324,9.83274599401463 226.62746851262324,9.83274599401463 226.62746851262324,9.83274599401463 ZM195.64352525796363,-18.82535135193487 C192.5552911472151,-21.920551431537234 187.5422544948645,-21.926881933929536 184.44651922202553,-18.83907066208124 C181.35079059379785,-15.750205917315753 181.3446690946334,-10.737912253318456 184.43279749565687,-7.641644203465177 C184.43279749565687,-7.641644203465177 195.64352525796363,-18.82535135193487 195.64352525796363,-18.82535135193487 C195.64352525796363,-18.82535135193487 195.64352525796363,-18.82535135193487 195.64352525796363,-18.82535135193487 C195.64352525796363,-18.82535135193487 195.64352525796363,-18.82535135193487 195.64352525796363,-18.82535135193487 ZM226.62746851262324,-6.002208386974445 C222.25489869381323,-6.0085292244775985 218.7057629331262,-2.4678405769064113 218.69942759828933,1.9047147445698727 C218.69309709589703,6.277274898490731 222.2337905759128,9.826425156511476 226.60634589738908,9.83274599401463 C226.60634589738908,9.83274599401463 226.62746851262324,-6.002208386974445 226.62746851262324,-6.002208386974445 C226.62746851262324,-6.002208386974445 226.62746851262324,-6.002208386974445 226.62746851262324,-6.002208386974445 C226.62746851262324,-6.002208386974445 226.62746851262324,-6.002208386974445 226.62746851262324,-6.002208386974445 ZM268.80122229324985,-7.641644203465177 C271.8890383975427,-10.737912253318456 271.88271756003957,-15.750205917315753 268.78750781554805,-18.83907066208124 C265.6912349332502,-21.926881933929536 260.6789461016975,-21.920551431537234 257.5900765244874,-18.82535135193487 C257.5900765244874,-18.82535135193487 268.80122229324985,-7.641644203465177 268.80122229324985,-7.641644203465177 C268.80122229324985,-7.641644203465177 268.80122229324985,-7.641644203465177 268.80122229324985,-7.641644203465177 C268.80122229324985,-7.641644203465177 268.80122229324985,-7.641644203465177 268.80122229324985,-7.641644203465177 ZM234.5343819792784,1.9152688035200924 C234.5343819792784,-2.4572865179561916 230.98946494270473,-6.002208386974445 226.61690478878387,-6.002208386974445 C222.2443494673076,-6.002208386974445 218.69942759828933,-2.4572865179561916 218.69942759828933,1.9152688035200924 C218.69942759828933,1.9152688035200924 234.5343819792784,1.9152688035200924 234.5343819792784,1.9152688035200924 C234.5343819792784,1.9152688035200924 234.5343819792784,1.9152688035200924 234.5343819792784,1.9152688035200924 C234.5343819792784,1.9152688035200924 234.5343819792784,1.9152688035200924 234.5343819792784,1.9152688035200924 ZM218.69942759828933,24.084204936904797 C218.69942759828933,28.456765090825655 222.2443494673076,32.001682127399334 226.61690478878387,32.001682127399334 C230.98946494270473,32.001682127399334 234.5343819792784,28.456765090825655 234.5343819792784,24.084204936904797 C234.5343819792784,24.084204936904797 218.69942759828933,24.084204936904797 218.69942759828933,24.084204936904797 C218.69942759828933,24.084204936904797 218.69942759828933,24.084204936904797 218.69942759828933,24.084204936904797 C218.69942759828933,24.084204936904797 218.69942759828933,24.084204936904797 218.69942759828933,24.084204936904797 ZM166.97191277265102,-49.801681090167705 C166.97782708075437,-45.42912576869142 170.5273887006195,-41.88843228867566 174.90005109094588,-41.89476520729025 C179.27271861574462,-41.90109812590484 182.81278085768787,-45.45023630281415 182.80686654958453,-49.82280370540187 C182.80686654958453,-49.82280370540187 166.97191277265102,-49.801681090167705 166.97191277265102,-49.801681090167705 C166.97191277265102,-49.801681090167705 166.97191277265102,-49.801681090167705 166.97191277265102,-49.801681090167705 C166.97191277265102,-49.801681090167705 166.97191277265102,-49.801681090167705 166.97191277265102,-49.801681090167705 ZM195.62980353159497,-80.78562374077174 C198.7255375963228,-83.87385770050639 198.73165788737612,-88.88689450387088 195.64352525796363,-91.98262917265427 C192.5552911472151,-95.07835840493752 187.5422544948645,-95.08447990410198 184.44651922202553,-91.99635089902293 C184.44651922202553,-91.99635089902293 195.62980353159497,-80.78562374077174 195.62980353159497,-80.78562374077174 C195.62980353159497,-80.78562374077174 195.62980353159497,-80.78562374077174 195.62980353159497,-80.78562374077174 C195.62980353159497,-80.78562374077174 195.62980353159497,-80.78562374077174 195.62980353159497,-80.78562374077174 ZM182.80686654958453,-49.801681090167705 C182.81278085768787,-54.174248492755424 179.27271861574462,-57.723386669664734 174.90005109094588,-57.72971958827932 C170.5273887006195,-57.73605250689391 166.97782708075437,-54.19536144310044 166.97191277265102,-49.82280370540187 C166.97191277265102,-49.82280370540187 182.80686654958453,-49.801681090167705 182.80686654958453,-49.801681090167705 C182.80686654958453,-49.801681090167705 182.80686654958453,-49.801681090167705 182.80686654958453,-49.801681090167705 C182.80686654958453,-49.801681090167705 182.80686654958453,-49.801681090167705 182.80686654958453,-49.801681090167705 ZM184.44651922202553,-7.627924893318806 C187.5422544948645,-4.5401136214705105 192.5552911472151,-4.546434458973664 195.64352525796363,-7.641644203465177 C198.73165788737612,-10.737912253318456 198.7255375963228,-15.750205917315753 195.62980353159497,-18.83907066208124 C195.62980353159497,-18.83907066208124 184.44651922202553,-7.627924893318806 184.44651922202553,-7.627924893318806 C184.44651922202553,-7.627924893318806 184.44651922202553,-7.627924893318806 184.44651922202553,-7.627924893318806 C184.44651922202553,-7.627924893318806 184.44651922202553,-7.627924893318806 184.44651922202553,-7.627924893318806 ZM174.88938951010388,-41.89476520729025 C179.26205703490263,-41.89476520729025 182.80686654958453,-45.439684660086215 182.80686654958453,-49.812242397784786 C182.80686654958453,-54.18480013548336 179.26205703490263,-57.72971958827932 174.88938951010388,-57.72971958827932 C174.88938951010388,-57.72971958827932 174.88938951010388,-41.89476520729025 174.88938951010388,-41.89476520729025 C174.88938951010388,-41.89476520729025 174.88938951010388,-41.89476520729025 174.88938951010388,-41.89476520729025 C174.88938951010388,-41.89476520729025 174.88938951010388,-41.89476520729025 174.88938951010388,-41.89476520729025 ZM152.720455037872,-57.72971958827932 C148.34779340261508,-57.72971958827932 144.80297784737746,-54.18480013548336 144.80297784737746,-49.812242397784786 C144.80297784737746,-45.439684660086215 148.34779340261508,-41.89476520729025 152.720455037872,-41.89476520729025 C152.720455037872,-41.89476520729025 152.720455037872,-57.72971958827932 152.720455037872,-57.72971958827932 C152.720455037872,-57.72971958827932 152.720455037872,-57.72971958827932 152.720455037872,-57.72971958827932 C152.720455037872,-57.72971958827932 152.720455037872,-57.72971958827932 152.720455037872,-57.72971958827932 ZM226.60634589738908,-93.62228244915084 C230.9789108837545,-93.61636753699193 234.5280514768861,-97.15643038299075 234.5343819792784,-101.52909805880338 C234.54071731411528,-105.9017596940603 231.00002383409952,-109.45132070986986 226.62746851262324,-109.45723562202878 C226.62746851262324,-109.45723562202878 226.60634589738908,-93.62228244915084 226.60634589738908,-93.62228244915084 C226.60634589738908,-93.62228244915084 226.60634589738908,-93.62228244915084 226.60634589738908,-93.62228244915084 C226.60634589738908,-93.62228244915084 226.60634589738908,-93.62228244915084 226.60634589738908,-93.62228244915084 ZM184.43279749565687,-91.98262917265427 C181.3446690946334,-88.88689450387088 181.35079059379785,-83.87385770050639 184.44651922202553,-80.78562374077174 C187.5422544948645,-77.69749050730368 192.5552911472151,-77.70361140241258 195.64352525796363,-80.79934592018208 C195.64352525796363,-80.79934592018208 184.43279749565687,-91.98262917265427 184.43279749565687,-91.98262917265427 C184.43279749565687,-91.98262917265427 184.43279749565687,-91.98262917265427 184.43279749565687,-91.98262917265427 C184.43279749565687,-91.98262917265427 184.43279749565687,-91.98262917265427 184.43279749565687,-91.98262917265427 ZM226.60634589738908,-109.45723562202878 C222.2337905759128,-109.45132070986986 218.69309709589703,-105.9017596940603 218.69942759828933,-101.52909805880338 C218.7057629331262,-97.15643038299075 222.25489869381323,-93.61636753699193 226.62746851262324,-93.62228244915084 C226.62746851262324,-93.62228244915084 226.60634589738908,-109.45723562202878 226.60634589738908,-109.45723562202878 C226.60634589738908,-109.45723562202878 226.60634589738908,-109.45723562202878 226.60634589738908,-109.45723562202878 C226.60634589738908,-109.45723562202878 226.60634589738908,-109.45723562202878 226.60634589738908,-109.45723562202878 ZM257.5900765244874,-80.79934592018208 C260.6789461016975,-77.70361140241258 265.6912349332502,-77.69749050730368 268.78750781554805,-80.78562374077174 C271.88271756003957,-83.87385770050639 271.8890383975427,-88.88689450387088 268.80122229324985,-91.98262917265427 C268.80122229324985,-91.98262917265427 257.5900765244874,-80.79934592018208 257.5900765244874,-80.79934592018208 C257.5900765244874,-80.79934592018208 257.5900765244874,-80.79934592018208 257.5900765244874,-80.79934592018208 C257.5900765244874,-80.79934592018208 257.5900765244874,-80.79934592018208 257.5900765244874,-80.79934592018208 ZM218.69942759828933,-101.53975963964538 C218.69942759828933,-97.16709196383275 222.2443494673076,-93.62228244915084 226.61690478878387,-93.62228244915084 C230.98946494270473,-93.62228244915084 234.5343819792784,-97.16709196383275 234.5343819792784,-101.53975963964538 C234.5343819792784,-101.53975963964538 218.69942759828933,-101.53975963964538 218.69942759828933,-101.53975963964538 C218.69942759828933,-101.53975963964538 218.69942759828933,-101.53975963964538 218.69942759828933,-101.53975963964538 C218.69942759828933,-101.53975963964538 218.69942759828933,-101.53975963964538 218.69942759828933,-101.53975963964538 ZM234.5343819792784,-123.70869456491894 C234.5343819792784,-128.08135620017586 230.98946494270473,-131.62617175541348 226.61690478878387,-131.62617175541348 C222.2443494673076,-131.62617175541348 218.69942759828933,-128.08135620017586 218.69942759828933,-123.70869456491894 C218.69942759828933,-123.70869456491894 234.5343819792784,-123.70869456491894 234.5343819792784,-123.70869456491894 C234.5343819792784,-123.70869456491894 234.5343819792784,-123.70869456491894 234.5343819792784,-123.70869456491894 C234.5343819792784,-123.70869456491894 234.5343819792784,-123.70869456491894 234.5343819792784,-123.70869456491894 ZM179.96005834948897,-107.66609004057321 C176.86812439836325,-110.75802338764336 171.85499200320453,-110.75802338764336 168.7630580520788,-107.66609004057321 C165.67112440298087,-104.57415669350306 165.67112440298087,-99.56102460037212 168.7630580520788,-96.46909004519082 C168.7630580520788,-96.46909004519082 179.96005834948897,-107.66609004057321 179.96005834948897,-107.66609004057321 C179.96005834948897,-107.66609004057321 179.96005834948897,-107.66609004057321 179.96005834948897,-107.66609004057321 C179.96005834948897,-107.66609004057321 179.96005834948897,-107.66609004057321 179.96005834948897,-107.66609004057321 ZM184.43966319128577,-80.79248988944232 C187.5315929140225,-77.70055095485813 192.544729839598,-77.70055095485813 195.63665835422358,-80.79248988944232 C198.7285989499606,-83.88441870609569 198.7285989499606,-88.89755608471287 195.63665835422358,-91.98948520339403 C195.63665835422358,-91.98948520339403 184.43966319128577,-80.79248988944232 184.43966319128577,-80.79248988944232 C184.43966319128577,-80.79248988944232 184.43966319128577,-80.79248988944232 184.43966319128577,-80.79248988944232 C184.43966319128577,-80.79248988944232 184.43966319128577,-80.79248988944232 184.43966319128577,-80.79248988944232 ZM273.27407500186524,8.041300800995458 C276.36611466271603,11.133321132067948 281.37840349426875,11.133321132067948 284.47044315511954,8.041300800995458 C287.56246348619203,4.949261140144671 287.56246348619203,-0.06303735629720109 284.47044315511954,-3.155072184703414 C284.47044315511954,-3.155072184703414 273.27407500186524,8.041300800995458 273.27407500186524,8.041300800995458 C273.27407500186524,8.041300800995458 273.27407500186524,8.041300800995458 273.27407500186524,8.041300800995458 C273.27407500186524,8.041300800995458 273.27407500186524,8.041300800995458 273.27407500186524,8.041300800995458 ZM268.79383831794036,-18.831681854327172 C265.70179865708957,-21.92372151517796 260.68950982553685,-21.92372151517796 257.59747016468606,-18.831681854327172 C254.50543050383527,-15.739642193476385 254.50543050383527,-10.727353361923662 257.59747016468606,-7.635313701072874 C257.59747016468606,-7.635313701072874 268.79383831794036,-18.831681854327172 268.79383831794036,-18.831681854327172 C268.79383831794036,-18.831681854327172 268.79383831794036,-18.831681854327172 268.79383831794036,-18.831681854327172 C268.79383831794036,-18.831681854327172 268.79383831794036,-18.831681854327172 268.79383831794036,-18.831681854327172 ZM168.7630580520788,-3.155072184703414 C165.67112440298087,-0.06303735629720109 165.67112440298087,4.949261140144671 168.7630580520788,8.041300800995458 C171.85499200320453,11.133321132067948 176.86812439836325,11.133321132067948 179.96005834948897,8.041300800995458 C179.96005834948897,8.041300800995458 168.7630580520788,-3.155072184703414 168.7630580520788,-3.155072184703414 C168.7630580520788,-3.155072184703414 168.7630580520788,-3.155072184703414 168.7630580520788,-3.155072184703414 C168.7630580520788,-3.155072184703414 168.7630580520788,-3.155072184703414 168.7630580520788,-3.155072184703414 ZM195.63665835422358,-7.635313701072874 C198.7285989499606,-10.727353361923662 198.7285989499606,-15.739642193476385 195.63665835422358,-18.831681854327172 C192.544729839598,-21.92372151517796 187.5315929140225,-21.92372151517796 184.43966319128577,-18.831681854327172 C184.43966319128577,-18.831681854327172 195.63665835422358,-7.635313701072874 195.63665835422358,-7.635313701072874 C195.63665835422358,-7.635313701072874 195.63665835422358,-7.635313701072874 195.63665835422358,-7.635313701072874 C195.63665835422358,-7.635313701072874 195.63665835422358,-7.635313701072874 195.63665835422358,-7.635313701072874 ZM284.47044315511954,-96.46909004519082 C287.56246348619203,-99.56102460037212 287.56246348619203,-104.57415669350306 284.47044315511954,-107.66609004057321 C281.37840349426875,-110.75802338764336 276.36611466271603,-110.75802338764336 273.27407500186524,-107.66609004057321 C273.27407500186524,-107.66609004057321 284.47044315511954,-96.46909004519082 284.47044315511954,-96.46909004519082 C284.47044315511954,-96.46909004519082 284.47044315511954,-96.46909004519082 284.47044315511954,-96.46909004519082 C284.47044315511954,-96.46909004519082 284.47044315511954,-96.46909004519082 284.47044315511954,-96.46909004519082 ZM257.59747016468606,-91.98948520339403 C254.50543050383527,-88.89755608471287 254.50543050383527,-83.88441870609569 257.59747016468606,-80.79248988944232 C260.68950982553685,-77.70055095485813 265.70179865708957,-77.70055095485813 268.79383831794036,-80.79248988944232 C268.79383831794036,-80.79248988944232 257.59747016468606,-91.98948520339403 257.59747016468606,-91.98948520339403 C257.59747016468606,-91.98948520339403 257.59747016468606,-91.98948520339403 257.59747016468606,-91.98948520339403 C257.59747016468606,-91.98948520339403 257.59747016468606,-91.98948520339403 257.59747016468606,-91.98948520339403 ZM195.63665835422358,-91.98948520339403 C192.544729839598,-95.08141855046418 187.5315929140225,-95.08141855046418 184.43966319128577,-91.98948520339403 C181.34772984421562,-88.89755608471287 181.34772984421562,-83.88441870609569 184.43966319128577,-80.79248988944232 C184.43966319128577,-80.79248988944232 195.63665835422358,-91.98948520339403 195.63665835422358,-91.98948520339403 C195.63665835422358,-91.98948520339403 195.63665835422358,-91.98948520339403 195.63665835422358,-91.98948520339403 C195.63665835422358,-91.98948520339403 195.63665835422358,-91.98948520339403 195.63665835422358,-91.98948520339403 ZM205.34179693363564,-59.890667990781395 C208.4341603682729,-56.79862832993061 213.4464516160479,-56.79862832993061 216.53847919578726,-59.890667990781395 C219.63051885663805,-62.98269677863189 219.63051885663805,-67.99498923451804 216.53847919578726,-71.08735025293302 C216.53847919578726,-71.08735025293302 205.34179693363564,-59.890667990781395 205.34179693363564,-59.890667990781395 C205.34179693363564,-59.890667990781395 205.34179693363564,-59.890667990781395 205.34179693363564,-59.890667990781395 C205.34179693363564,-59.890667990781395 205.34179693363564,-59.890667990781395 205.34179693363564,-59.890667990781395 ZM184.43966319128577,-18.831681854327172 C181.34772984421562,-15.739642193476385 181.34772984421562,-10.727353361923662 184.43966319128577,-7.635313701072874 C187.5315929140225,-4.543274040222087 192.544729839598,-4.543274040222087 195.63665835422358,-7.635313701072874 C195.63665835422358,-7.635313701072874 184.43966319128577,-18.831681854327172 184.43966319128577,-18.831681854327172 C184.43966319128577,-18.831681854327172 184.43966319128577,-18.831681854327172 184.43966319128577,-18.831681854327172 C184.43966319128577,-18.831681854327172 184.43966319128577,-18.831681854327172 184.43966319128577,-18.831681854327172 ZM216.53847919578726,-28.537458316423027 C219.63051885663805,-31.629497977273815 219.63051885663805,-36.64178680882654 216.53847919578726,-39.73381680478818 C213.4464516160479,-42.825856465638964 208.4341603682729,-42.825856465638964 205.34179693363564,-39.73381680478818 C205.34179693363564,-39.73381680478818 216.53847919578726,-28.537458316423027 216.53847919578726,-28.537458316423027 C216.53847919578726,-28.537458316423027 216.53847919578726,-28.537458316423027 216.53847919578726,-28.537458316423027 C216.53847919578726,-28.537458316423027 216.53847919578726,-28.537458316423027 216.53847919578726,-28.537458316423027 ZM257.59747016468606,-7.635313701072874 C260.68950982553685,-4.543274040222087 265.70179865708957,-4.543274040222087 268.79383831794036,-7.635313701072874 C271.88587797879114,-10.727353361923662 271.88587797879114,-15.739642193476385 268.79383831794036,-18.831681854327172 C268.79383831794036,-18.831681854327172 257.59747016468606,-7.635313701072874 257.59747016468606,-7.635313701072874 C257.59747016468606,-7.635313701072874 257.59747016468606,-7.635313701072874 257.59747016468606,-7.635313701072874 C257.59747016468606,-7.635313701072874 257.59747016468606,-7.635313701072874 257.59747016468606,-7.635313701072874 ZM247.8916937025902,-39.73381680478818 C244.79965404173942,-42.825856465638964 239.78736037774212,-42.825856465638964 236.69533038178048,-39.73381680478818 C233.6032907209297,-36.64178680882654 233.6032907209297,-31.629497977273815 236.69533038178048,-28.537458316423027 C236.69533038178048,-28.537458316423027 247.8916937025902,-39.73381680478818 247.8916937025902,-39.73381680478818 C247.8916937025902,-39.73381680478818 247.8916937025902,-39.73381680478818 247.8916937025902,-39.73381680478818 C247.8916937025902,-39.73381680478818 247.8916937025902,-39.73381680478818 247.8916937025902,-39.73381680478818 ZM268.79383831794036,-80.79248988944232 C271.88587797879114,-83.88441870609569 271.88587797879114,-88.89755608471287 268.79383831794036,-91.98948520339403 C265.70179865708957,-95.08141855046418 260.68950982553685,-95.08141855046418 257.59747016468606,-91.98948520339403 C257.59747016468606,-91.98948520339403 268.79383831794036,-80.79248988944232 268.79383831794036,-80.79248988944232 C268.79383831794036,-80.79248988944232 268.79383831794036,-80.79248988944232 268.79383831794036,-80.79248988944232 C268.79383831794036,-80.79248988944232 268.79383831794036,-80.79248988944232 268.79383831794036,-80.79248988944232 ZM236.69533038178048,-71.08735025293302 C233.6032907209297,-67.99498923451804 233.6032907209297,-62.98269677863189 236.69533038178048,-59.890667990781395 C239.78736037774212,-56.79862832993061 244.79965404173942,-56.79862832993061 247.8916937025902,-59.890667990781395 C247.8916937025902,-59.890667990781395 236.69533038178048,-71.08735025293302 236.69533038178048,-71.08735025293302 C236.69533038178048,-71.08735025293302 236.69533038178048,-71.08735025293302 236.69533038178048,-71.08735025293302 C236.69533038178048,-71.08735025293302 236.69533038178048,-71.08735025293302 236.69533038178048,-71.08735025293302 ZM270.4269436320388,-49.801681090167705 C270.44278438535326,-38.18515845962523 265.82742288624246,-27.042628571372944 257.60380066707836,-18.83907066208124 C257.60380066707836,-18.83907066208124 268.78750781554805,-7.627924893318806 268.78750781554805,-7.627924893318806 C279.9944203628634,-18.807398820341433 286.28301579581745,-33.993123937665615 286.26189801302786,-49.82280370540187 C286.26189801302786,-49.82280370540187 270.4269436320388,-49.801681090167705 270.4269436320388,-49.801681090167705 C270.4269436320388,-49.801681090167705 270.4269436320388,-49.801681090167705 270.4269436320388,-49.801681090167705 C270.4269436320388,-49.801681090167705 270.4269436320388,-49.801681090167705 270.4269436320388,-49.801681090167705 ZM286.26189801302786,-49.801681090167705 C286.28301579581745,-65.63135964979281 279.9944203628634,-80.81666223024453 268.78750781554805,-91.99635089902293 C268.78750781554805,-91.99635089902293 257.60380066707836,-80.78562374077174 257.60380066707836,-80.78562374077174 C265.82742288624246,-72.5819552893104 270.44278438535326,-61.439326335944344 270.4269436320388,-49.82280370540187 C270.4269436320388,-49.82280370540187 286.26189801302786,-49.801681090167705 286.26189801302786,-49.801681090167705 C286.26189801302786,-49.801681090167705 286.26189801302786,-49.801681090167705 286.26189801302786,-49.801681090167705 C286.26189801302786,-49.801681090167705 286.26189801302786,-49.801681090167705 286.26189801302786,-49.801681090167705 ZM278.3444208225333,-41.89476520729025 C278.3444208225333,-41.89476520729025 300.513356955918,-41.89476520729025 300.513356955918,-41.89476520729025 C300.513356955918,-41.89476520729025 300.513356955918,-57.72971958827932 300.513356955918,-57.72971958827932 C300.513356955918,-57.72971958827932 278.3444208225333,-57.72971958827932 278.3444208225333,-57.72971958827932 C278.3444208225333,-57.72971958827932 278.3444208225333,-41.89476520729025 278.3444208225333,-41.89476520729025 C278.3444208225333,-41.89476520729025 278.3444208225333,-41.89476520729025 278.3444208225333,-41.89476520729025 C278.3444208225333,-41.89476520729025 278.3444208225333,-41.89476520729025 278.3444208225333,-41.89476520729025 ZM226.60634589738908,-6.002208386974445 C214.9898256830689,-5.986362801215392 203.84719431348054,-10.601729132770771 195.64352525796363,-18.82535135193487 C195.64352525796363,-18.82535135193487 184.43279749565687,-7.641644203465177 184.43279749565687,-7.641644203465177 C195.61248646646305,3.5652683438501924 210.797788744887,9.853863776804218 226.62746851262324,9.83274599401463 C226.62746851262324,9.83274599401463 226.60634589738908,-6.002208386974445 226.60634589738908,-6.002208386974445 C226.60634589738908,-6.002208386974445 226.60634589738908,-6.002208386974445 226.60634589738908,-6.002208386974445 C226.60634589738908,-6.002208386974445 226.60634589738908,-6.002208386974445 226.60634589738908,-6.002208386974445 ZM226.60634589738908,9.83274599401463 C242.43602324890304,9.853863776804218 257.6217483662272,3.5652683438501924 268.80122229324985,-7.641644203465177 C268.80122229324985,-7.641644203465177 257.5900765244874,-18.82535135193487 257.5900765244874,-18.82535135193487 C249.3865186151957,-10.601729132770771 238.24398872694343,-5.986362801215392 226.62746851262324,-6.002208386974445 C226.62746851262324,-6.002208386974445 226.60634589738908,9.83274599401463 226.60634589738908,9.83274599401463 C226.60634589738908,9.83274599401463 226.60634589738908,9.83274599401463 226.60634589738908,9.83274599401463 C226.60634589738908,9.83274599401463 226.60634589738908,9.83274599401463 226.60634589738908,9.83274599401463 ZM218.69942759828933,1.9152688035200924 C218.69942759828933,1.9152688035200924 218.69942759828933,24.084204936904797 218.69942759828933,24.084204936904797 C218.69942759828933,24.084204936904797 234.5343819792784,24.084204936904797 234.5343819792784,24.084204936904797 C234.5343819792784,24.084204936904797 234.5343819792784,1.9152688035200924 234.5343819792784,1.9152688035200924 C234.5343819792784,1.9152688035200924 218.69942759828933,1.9152688035200924 218.69942759828933,1.9152688035200924 C218.69942759828933,1.9152688035200924 218.69942759828933,1.9152688035200924 218.69942759828933,1.9152688035200924 C218.69942759828933,1.9152688035200924 218.69942759828933,1.9152688035200924 218.69942759828933,1.9152688035200924 ZM182.80686654958453,-49.82280370540187 C182.79124144410918,-61.439326335944344 187.40607983109481,-72.5819552893104 195.62980353159497,-80.78562374077174 C195.62980353159497,-80.78562374077174 184.44651922202553,-91.99635089902293 184.44651922202553,-91.99635089902293 C173.23949229230442,-80.81666223024453 166.95058961096703,-65.63135964979281 166.97191277265102,-49.801681090167705 C166.97191277265102,-49.801681090167705 182.80686654958453,-49.82280370540187 182.80686654958453,-49.82280370540187 C182.80686654958453,-49.82280370540187 182.80686654958453,-49.82280370540187 182.80686654958453,-49.82280370540187 C182.80686654958453,-49.82280370540187 182.80686654958453,-49.82280370540187 182.80686654958453,-49.82280370540187 ZM166.97191277265102,-49.82280370540187 C166.95058961096703,-33.993123937665615 173.23949229230442,-18.807398820341433 184.44651922202553,-7.627924893318806 C184.44651922202553,-7.627924893318806 195.62980353159497,-18.83907066208124 195.62980353159497,-18.83907066208124 C187.40607983109481,-27.042628571372944 182.79124144410918,-38.18515845962523 182.80686654958453,-49.801681090167705 C182.80686654958453,-49.801681090167705 166.97191277265102,-49.82280370540187 166.97191277265102,-49.82280370540187 C166.97191277265102,-49.82280370540187 166.97191277265102,-49.82280370540187 166.97191277265102,-49.82280370540187 C166.97191277265102,-49.82280370540187 166.97191277265102,-49.82280370540187 166.97191277265102,-49.82280370540187 ZM174.88938951010388,-57.72971958827932 C174.88938951010388,-57.72971958827932 152.720455037872,-57.72971958827932 152.720455037872,-57.72971958827932 C152.720455037872,-57.72971958827932 152.720455037872,-41.89476520729025 152.720455037872,-41.89476520729025 C152.720455037872,-41.89476520729025 174.88938951010388,-41.89476520729025 174.88938951010388,-41.89476520729025 C174.88938951010388,-41.89476520729025 174.88938951010388,-57.72971958827932 174.88938951010388,-57.72971958827932 C174.88938951010388,-57.72971958827932 174.88938951010388,-57.72971958827932 174.88938951010388,-57.72971958827932 C174.88938951010388,-57.72971958827932 174.88938951010388,-57.72971958827932 174.88938951010388,-57.72971958827932 ZM226.62746851262324,-109.45723562202878 C210.797788744887,-109.47855878371277 195.61248646646305,-103.18965649052828 184.43279749565687,-91.98262917265427 C184.43279749565687,-91.98262917265427 195.64352525796363,-80.79934592018208 195.64352525796363,-80.79934592018208 C203.84719431348054,-89.02306916764056 214.9898256830689,-93.63790695057062 226.60634589738908,-93.62228244915084 C226.60634589738908,-93.62228244915084 226.62746851262324,-109.45723562202878 226.62746851262324,-109.45723562202878 C226.62746851262324,-109.45723562202878 226.62746851262324,-109.45723562202878 226.62746851262324,-109.45723562202878 C226.62746851262324,-109.45723562202878 226.62746851262324,-109.45723562202878 226.62746851262324,-109.45723562202878 ZM226.62746851262324,-93.62228244915084 C238.24398872694343,-93.63790695057062 249.3865186151957,-89.02306916764056 257.5900765244874,-80.79934592018208 C257.5900765244874,-80.79934592018208 268.80122229324985,-91.98262917265427 268.80122229324985,-91.98262917265427 C257.6217483662272,-103.18965649052828 242.43602324890304,-109.47855878371277 226.60634589738908,-109.45723562202878 C226.60634589738908,-109.45723562202878 226.62746851262324,-93.62228244915084 226.62746851262324,-93.62228244915084 C226.62746851262324,-93.62228244915084 226.62746851262324,-93.62228244915084 226.62746851262324,-93.62228244915084 C226.62746851262324,-93.62228244915084 226.62746851262324,-93.62228244915084 226.62746851262324,-93.62228244915084 ZM234.5343819792784,-101.53975963964538 C234.5343819792784,-101.53975963964538 234.5343819792784,-123.70869456491894 234.5343819792784,-123.70869456491894 C234.5343819792784,-123.70869456491894 218.69942759828933,-123.70869456491894 218.69942759828933,-123.70869456491894 C218.69942759828933,-123.70869456491894 218.69942759828933,-101.53975963964538 218.69942759828933,-101.53975963964538 C218.69942759828933,-101.53975963964538 234.5343819792784,-101.53975963964538 234.5343819792784,-101.53975963964538 C234.5343819792784,-101.53975963964538 234.5343819792784,-101.53975963964538 234.5343819792784,-101.53975963964538 C234.5343819792784,-101.53975963964538 234.5343819792784,-101.53975963964538 234.5343819792784,-101.53975963964538 ZM168.7630580520788,-96.46909004519082 C168.7630580520788,-96.46909004519082 184.43966319128577,-80.79248988944232 184.43966319128577,-80.79248988944232 C184.43966319128577,-80.79248988944232 195.63665835422358,-91.98948520339403 195.63665835422358,-91.98948520339403 C195.63665835422358,-91.98948520339403 179.96005834948897,-107.66609004057321 179.96005834948897,-107.66609004057321 C179.96005834948897,-107.66609004057321 168.7630580520788,-96.46909004519082 168.7630580520788,-96.46909004519082 C168.7630580520788,-96.46909004519082 168.7630580520788,-96.46909004519082 168.7630580520788,-96.46909004519082 C168.7630580520788,-96.46909004519082 168.7630580520788,-96.46909004519082 168.7630580520788,-96.46909004519082 ZM284.47044315511954,-3.155072184703414 C284.47044315511954,-3.155072184703414 268.79383831794036,-18.831681854327172 268.79383831794036,-18.831681854327172 C268.79383831794036,-18.831681854327172 257.59747016468606,-7.635313701072874 257.59747016468606,-7.635313701072874 C257.59747016468606,-7.635313701072874 273.27407500186524,8.041300800995458 273.27407500186524,8.041300800995458 C273.27407500186524,8.041300800995458 284.47044315511954,-3.155072184703414 284.47044315511954,-3.155072184703414 C284.47044315511954,-3.155072184703414 284.47044315511954,-3.155072184703414 284.47044315511954,-3.155072184703414 C284.47044315511954,-3.155072184703414 284.47044315511954,-3.155072184703414 284.47044315511954,-3.155072184703414 ZM179.96005834948897,8.041300800995458 C179.96005834948897,8.041300800995458 195.63665835422358,-7.635313701072874 195.63665835422358,-7.635313701072874 C195.63665835422358,-7.635313701072874 184.43966319128577,-18.831681854327172 184.43966319128577,-18.831681854327172 C184.43966319128577,-18.831681854327172 168.7630580520788,-3.155072184703414 168.7630580520788,-3.155072184703414 C168.7630580520788,-3.155072184703414 179.96005834948897,8.041300800995458 179.96005834948897,8.041300800995458 C179.96005834948897,8.041300800995458 179.96005834948897,8.041300800995458 179.96005834948897,8.041300800995458 C179.96005834948897,8.041300800995458 179.96005834948897,8.041300800995458 179.96005834948897,8.041300800995458 ZM273.27407500186524,-107.66609004057321 C273.27407500186524,-107.66609004057321 257.59747016468606,-91.98948520339403 257.59747016468606,-91.98948520339403 C257.59747016468606,-91.98948520339403 268.79383831794036,-80.79248988944232 268.79383831794036,-80.79248988944232 C268.79383831794036,-80.79248988944232 284.47044315511954,-96.46909004519082 284.47044315511954,-96.46909004519082 C284.47044315511954,-96.46909004519082 273.27407500186524,-107.66609004057321 273.27407500186524,-107.66609004057321 C273.27407500186524,-107.66609004057321 273.27407500186524,-107.66609004057321 273.27407500186524,-107.66609004057321 C273.27407500186524,-107.66609004057321 273.27407500186524,-107.66609004057321 273.27407500186524,-107.66609004057321 ZM184.43966319128577,-80.79248988944232 C184.43966319128577,-80.79248988944232 205.34179693363564,-59.890667990781395 205.34179693363564,-59.890667990781395 C205.34179693363564,-59.890667990781395 216.53847919578726,-71.08735025293302 216.53847919578726,-71.08735025293302 C216.53847919578726,-71.08735025293302 195.63665835422358,-91.98948520339403 195.63665835422358,-91.98948520339403 C195.63665835422358,-91.98948520339403 184.43966319128577,-80.79248988944232 184.43966319128577,-80.79248988944232 C184.43966319128577,-80.79248988944232 184.43966319128577,-80.79248988944232 184.43966319128577,-80.79248988944232 C184.43966319128577,-80.79248988944232 184.43966319128577,-80.79248988944232 184.43966319128577,-80.79248988944232 ZM195.63665835422358,-7.635313701072874 C195.63665835422358,-7.635313701072874 216.53847919578726,-28.537458316423027 216.53847919578726,-28.537458316423027 C216.53847919578726,-28.537458316423027 205.34179693363564,-39.73381680478818 205.34179693363564,-39.73381680478818 C205.34179693363564,-39.73381680478818 184.43966319128577,-18.831681854327172 184.43966319128577,-18.831681854327172 C184.43966319128577,-18.831681854327172 195.63665835422358,-7.635313701072874 195.63665835422358,-7.635313701072874 C195.63665835422358,-7.635313701072874 195.63665835422358,-7.635313701072874 195.63665835422358,-7.635313701072874 C195.63665835422358,-7.635313701072874 195.63665835422358,-7.635313701072874 195.63665835422358,-7.635313701072874 ZM268.79383831794036,-18.831681854327172 C268.79383831794036,-18.831681854327172 247.8916937025902,-39.73381680478818 247.8916937025902,-39.73381680478818 C247.8916937025902,-39.73381680478818 236.69533038178048,-28.537458316423027 236.69533038178048,-28.537458316423027 C236.69533038178048,-28.537458316423027 257.59747016468606,-7.635313701072874 257.59747016468606,-7.635313701072874 C257.59747016468606,-7.635313701072874 268.79383831794036,-18.831681854327172 268.79383831794036,-18.831681854327172 C268.79383831794036,-18.831681854327172 268.79383831794036,-18.831681854327172 268.79383831794036,-18.831681854327172 C268.79383831794036,-18.831681854327172 268.79383831794036,-18.831681854327172 268.79383831794036,-18.831681854327172 ZM257.59747016468606,-91.98948520339403 C257.59747016468606,-91.98948520339403 236.69533038178048,-71.08735025293302 236.69533038178048,-71.08735025293302 C236.69533038178048,-71.08735025293302 247.8916937025902,-59.890667990781395 247.8916937025902,-59.890667990781395 C247.8916937025902,-59.890667990781395 268.79383831794036,-80.79248988944232 268.79383831794036,-80.79248988944232 C268.79383831794036,-80.79248988944232 257.59747016468606,-91.98948520339403 257.59747016468606,-91.98948520339403 C257.59747016468606,-91.98948520339403 257.59747016468606,-91.98948520339403 257.59747016468606,-91.98948520339403 C257.59747016468606,-91.98948520339403 257.59747016468606,-91.98948520339403 257.59747016468606,-91.98948520339403 Z" fill="#000000"/>
							</g>
						</g>
					</g>
				</g>
			</g>
		</g>
	</g>
	<g>
		<path d="M186.7506998058691,36.351943443201726 C204.9029604901974,36.351943443201726 219.64805655679808,51.097039509802414 219.64805655679808,69.24930019413071 C219.64805655679808,87.40156087845901 204.9029604901974,102.1466569450597 186.7506998058691,102.1466569450597 C168.5984391215408,102.1466569450597 153.8533430549401,87.40156087845901 153.8533430549401,69.24930019413071 C153.8533430549401,51.097039509802414 168.5984391215408,36.351943443201726 186.7506998058691,36.351943443201726 Z" fill="#ce4141"/>
	</g>
</g></g></svg>