<svg xmlns="http://www.w3.org/2000/svg" viewBox="0 0 223 223" width="223" height="223"><defs></defs><g transform="matrix(1,0,0,1,-16.052400643,-16.052400643)">
<g>
	<g>
		<path d="M118.52513506126537,19.973465326995978 C123.7532213059712,14.745379082290157 132.24677869402865,14.745379082290157 137.47486493873447,19.973465326995978 L236.026534673004,118.5251350612654 C241.25462091770981,123.75322130597122 241.25462091770981,132.24677869402868 236.026534673004,137.4748649387345 L137.47486493873458,236.02653467300402 C132.24677869402876,241.25462091770984 123.7532213059713,241.25462091770984 118.52513506126547,236.02653467300402 L19.97346532699595,137.47486493873458 C14.745379082290128,132.24677869402876 14.745379082290128,123.75322130597132 19.97346532699595,118.5251350612655 L118.52513506126537,19.973465326995978 Z" transform="matrix(1,0,0,1,0,0)" fill="#ffffff" stroke="#ffffff" stroke-width="2"/>
	</g>
	<g>
		<g transform="matrix(0.173623415,0,0,0.173623415,65.726052635,123.240210292)">
			<g>
				<g>
					<g>
						<path d="M-41.32746787465277,-372.5855389458334 C-41.32746787465277,-372.5855389458334 758.6725016077692,-372.5855389458334 758.6725016077692,-372.5855389458334 C758.6725016077692,-372.5855389458334 758.6725016077692,427.4144305365885 758.6725016077692,427.4144305365885 C758.6725016077692,427.4144305365885 -41.32746787465277,427.4144305365885 -41.32746787465277,427.4144305365885 C-41.32746787465277,427.4144305365885 -41.32746787465277,-372.5855389458334 -41.32746787465277,-372.5855389458334 Z" fill="none"/>
					</g>
				</g>
				<g>
					<g>
						<g>
							<path d="M385.33918887380077,54.081117802620156 C385.33918887380077,54.081117802620156 328.6725307266244,110.7477759497965 328.6725307266244,110.7477759497965 C328.6725307266244,110.7477759497965 275.3391867121392,57.41443193531131 275.3391867121392,57.41443193531131 C275.3391867121392,57.41443193531131 332.0058448593156,0.747773788134964 332.0058448593156,0.747773788134964 C341.95886648281174,-12.522889920717262 340.63914022496846,-31.092708344821858 328.909423417783,-42.822456941149994 C317.17967482145485,-54.55217374833546 298.60985639735026,-55.87190000617875 285.33919268849803,-45.91887838268258 C285.33919268849803,-45.91887838268258 228.67253454132168,10.747779764493771 228.67253454132168,10.747779764493771 C228.67253454132168,10.747779764493771 207.00584962768716,-10.918873359998088 207.00584962768716,-10.918873359998088 C201.00828744802874,-17.4556111884408 192.54380832451187,-21.176816439961385 183.67252354227838,-21.176816439961385 C174.8012387600449,-21.176816439961385 166.33675963652803,-17.4556111884408 160.3391974568696,-10.918873359998088 C160.3391974568696,-10.918873359998088 110.33919936421825,39.08112473265328 110.33919936421825,39.08112473265328 C78.62550027950527,69.63881959154651 60.595668127322995,111.70841205206716 60.33919332428121,155.7477869488398 C59.731194181621674,189.3220807120274 70.28267820497712,222.1489481528156 90.3391953587863,249.0810912904749 C90.3391953587863,249.0810912904749 35.33919427795553,304.0810764767343 35.33919427795553,304.0810764767343 C28.802464396798484,310.0786704455354 25.08125119799223,318.5431654636236 25.08125119799223,327.41443435128576 C25.08125119799223,336.2857032389479 28.802464396798484,344.7501982570361 35.33919427795553,350.7477922258372 C41.336756457613944,357.2845300542799 49.801251475702145,361.00570351665783 58.672528310649966,361.00570351665783 C67.54380514559779,361.00570351665783 76.00830016368599,357.2845300542799 82.0058623433444,350.7477922258372 C82.0058623433444,350.7477922258372 135.33919841054393,297.414448211352 135.33919841054393,297.414448211352 C163.98774862282352,318.01559285191297 198.3858898073833,329.09296466241767 233.67252163492975,329.08107552306 C277.90266317685035,328.97731576139313 320.3509596939695,311.6392630373707 352.0058568120332,280.7477821804682 C352.0058568120332,280.7477821804682 402.00585490468455,230.74778408781685 402.00585490468455,230.74778408781685 C408.2863086649415,224.59340606737942 411.8806116589332,216.20673087054138 412.00586088104336,207.41442621326541 C412.53826544243947,198.49496498531926 408.83196929882996,189.84691945746863 402.00585490468455,184.0811319169993 C402.00585490468455,184.0811319169993 375.33918289744196,157.41442812061405 375.33918289744196,157.41442812061405 C375.33918289744196,157.41442812061405 432.0058410446183,100.7477699734377 432.0058410446183,100.7477699734377 C441.9588626681145,87.47710626458547 440.6391364102712,68.90728784048088 428.9094196030857,57.17753924415274 C417.1796710067576,45.44782243696727 398.609852582653,44.128096179123986 385.33918887380077,54.081117802620156 C385.33918887380077,54.081117802620156 385.33918887380077,54.081117802620156 385.33918887380077,54.081117802620156 Z" fill="#000000"/>
						</g>
						<g>
							<path d="M682.0058632970179,-295.9188767932251 C676.0082693282168,-302.4556066743821 667.5437743101286,-306.1768198731884 658.6725054224664,-306.1768198731884 C649.8012365348043,-306.1768198731884 641.3367415167161,-302.4556066743821 635.339147547915,-295.9188767932251 C635.339147547915,-295.9188767932251 578.6725211898813,-239.25221069876307 578.6725211898813,-239.25221069876307 C512.6591239481643,-288.4547463584563 420.6093062417314,-282.08206434803515 362.005862788392,-224.2522176287962 C362.005862788392,-224.2522176287962 312.0058646957406,-174.25221953614482 312.0058646957406,-174.25221953614482 C305.725379146341,-168.09785741027872 302.1310761523493,-159.71118221344068 302.0058587193818,-150.91887755616472 C301.4734541579857,-141.9993845390759 305.17971851245255,-133.35137080036793 312.0058646957406,-127.58555147075595 C312.0058646957406,-127.58555147075595 507.005869972738,67.41443791167012 507.005869972738,67.41443791167012 C513.0034003632538,73.95117574011283 521.467895381342,77.67238099163342 530.3391642690042,77.67238099163342 C539.2104331566663,77.67238099163342 547.6749281747545,73.95117574011283 553.6725221435556,67.41443791167012 C553.6725221435556,67.41443791167012 603.672520236207,19.081112779935665 603.672520236207,19.081112779935665 C635.028376889197,-12.267146267956832 652.4483184447311,-54.915905118737555 652.0058135787988,-99.25222239716777 C651.8726170710218,-131.70151429592215 642.6332299112694,-163.46182421107142 625.3391733606989,-190.9188855670286 C625.3391733606989,-190.9188855670286 682.0058632970179,-249.2522087278362 682.0058632970179,-249.2522087278362 C688.5426011254606,-255.24977090749462 692.2637745878385,-263.7142659255828 692.2637745878385,-272.58554276053064 C692.2637745878385,-281.45681959547846 688.5426011254606,-289.92131461356666 682.0058632970179,-295.9188767932251 C682.0058632970179,-295.9188767932251 682.0058632970179,-295.9188767932251 682.0058632970179,-295.9188767932251 Z" fill="#000000"/>
						</g>
					</g>
				</g>
			</g>
		</g>
	</g>
	<g>
		<path d="M186.7506998058691,36.351943443201726 C204.9029604901974,36.351943443201726 219.64805655679808,51.097039509802414 219.64805655679808,69.24930019413071 C219.64805655679808,87.40156087845901 204.9029604901974,102.1466569450597 186.7506998058691,102.1466569450597 C168.5984391215408,102.1466569450597 153.8533430549401,87.40156087845901 153.8533430549401,69.24930019413071 C153.8533430549401,51.097039509802414 168.5984391215408,36.351943443201726 186.7506998058691,36.351943443201726 Z" fill="#ce4141"/>
	</g>
</g></g></svg>