<svg xmlns="http://www.w3.org/2000/svg" viewBox="0 0 223 223" width="223" height="223"><defs></defs><g transform="matrix(1,0,0,1,-16.590572616,-18.117503433)">
<g>
	<g>
		<g transform="matrix(1,0,0,1,25.286343424,41.662773979)">
			<g>
				<g>
					<g>
						<path d="M93.77696721911633,-19.624206407717566 C99.00504796862805,-24.852291925600866 107.49860875964367,-24.852291925600866 112.72669713854992,-19.624206407717566 C112.72669713854992,-19.624206407717566 211.27836339831555,78.92746748144259 211.27836339831555,78.92746748144259 C216.5064517772218,84.15554823095431 216.5064517772218,92.64910902196993 211.27836339831555,97.87719740087618 C211.27836339831555,97.87719740087618 112.72669713854992,196.4288636606418 112.72669713854992,196.4288636606418 C107.49860875964367,201.65695203954806 99.00504796862805,201.65695203954806 93.77696721911633,196.4288636606418 C93.77696721911633,196.4288636606418 -4.774706670043827,97.87719740087618 -4.774706670043827,97.87719740087618 C-10.002792187927128,92.64910902196993 -10.002792187927128,84.15554823095431 -4.774706670043827,78.92746748144259 C-4.774706670043827,78.92746748144259 93.77696721911633,-19.624206407717566 93.77696721911633,-19.624206407717566 C93.77696721911633,-19.624206407717566 93.77696721911633,-19.624206407717566 93.77696721911633,-19.624206407717566 Z" fill="#ffffff" stroke="#ffffff" stroke-width="2"/>
					</g>
				</g>
				<g>
					<g>
						<g>
							<g>
								<g>
									<g>
										<g>
											<path d="M158.06003369207627,69.5163901738687 C158.06003369207627,69.5163901738687 155.48811680310263,63.41877411803753 155.48811680310263,63.41877411803753 C164.29611985440187,43.510869485101466 163.71206359143724,42.919260621470585 162.00158101033975,41.192362223745704 C162.00158101033975,41.192362223745704 150.7494619039191,30.198990261737208 150.7494619039191,30.198990261737208 C150.7494619039191,30.198990261737208 149.63280615079765,29.258095220840687 149.63280615079765,29.258095220840687 C149.63280615079765,29.258095220840687 148.32932290751086,29.258095220840687 148.32932290751086,29.258095220840687 C147.64184613565175,29.258095220840687 145.58963573890122,29.258095220840687 128.48532841309787,37.01603617836372 C128.48532841309787,37.01603617836372 122.19020983351282,34.47784098885609 122.19020983351282,34.47784098885609 C114.05413475987115,14.308969446866968 113.21975385605964,14.308969446866968 110.83734329730459,14.308969446866968 C110.83734329730459,14.308969446866968 94.96418477240394,14.308969446866968 94.96418477240394,14.308969446866968 C92.58443577086308,14.308969446866968 91.65951871467126,14.306307889652771 84.11372460652655,34.549737599317496 C84.11372460652655,34.549737599317496 77.84567959431837,37.09459244280697 77.84567959431837,37.09459244280697 C66.28688226984463,32.213924455123106 59.50800406303057,29.74318706691338 57.67858962498832,29.74318706691338 C57.67858962498832,29.74318706691338 56.17803808927886,29.78978736194722 56.17803808927886,29.78978736194722 C56.17803808927886,29.78978736194722 44.07511875184263,41.6561529706853 44.07511875184263,41.6561529706853 C42.23859935666856,43.383048487937 41.59772666046433,43.991967555116275 50.9108052005507,63.591862831333 C50.9108052005507,63.591862831333 48.34820016123527,69.66817382738046 48.34820016123527,69.66817382738046 C27.742170367228425,77.63426677804648 27.742170367228425,78.40695298726604 27.742170367228425,80.84440434757755 C27.742170367228425,80.84440434757755 27.742170367228425,96.4082130155548 27.742170367228425,96.4082130155548 C27.742170367228425,98.84965887204248 27.742170367228425,99.71022039654645 48.41743521448248,107.11621073911647 C48.41743521448248,107.11621073911647 50.979598101165465,113.18187658648458 50.979598101165465,113.18187658648458 C42.17291466663977,133.07912238849372 42.76452443041852,133.67650372036837 44.475442863113386,135.38698054051952 C44.475442863113386,135.38698054051952 55.72756304971148,146.39366604954535 55.72756304971148,146.39366604954535 C55.72756304971148,146.39366604954535 56.84687387898248,147.35586507004814 56.84687387898248,147.35586507004814 C56.84687387898248,147.35586507004814 58.156579664446724,147.35586507004814 58.156579664446724,147.35586507004814 C58.83340300626611,147.35586507004814 60.86031996806224,147.35586507004814 77.9885885099763,139.58195188876675 C77.9885885099763,139.58195188876675 84.27261150688918,142.13745008063984 84.27261150688918,142.13745008063984 C92.4100115981916,162.3036658263611 93.24572616108338,162.29877478290905 95.63346271474,162.29877478290905 C95.63346271474,162.29877478290905 111.50928279685485,162.29877478290905 111.50928279685485,162.29877478290905 C113.936968632983,162.29877478290905 114.79797086988282,162.29877478290905 122.36640837766043,142.06555923112478 C122.36640837766043,142.06555923112478 128.6664007178585,139.51804571089428 128.6664007178585,139.51804571089428 C140.2118844953149,144.40004447718525 146.97523551147623,146.87876653703756 148.79310213255775,146.87876653703756 C148.79310213255775,146.87876653703756 150.3038757474489,146.83615857782502 150.3038757474489,146.83615857782502 C150.3038757474489,146.83615857782502 162.4995341691412,134.8970062924143 162.4995341691412,134.8970062924143 C164.23442011898186,133.14613947739576 164.84201560873697,132.54077923482487 155.58086803935493,113.02210250038388 C155.58086803935493,113.02210250038388 158.12572000237122,106.94090802212645 158.12572000237122,106.94090802212645 C178.76148744138317,98.96682499893063 178.76148744138317,98.12978253790493 178.76148744138317,95.7473690986767 C178.76148744138317,95.7473690986767 178.76148744138317,80.20086919401126 178.76148744138317,80.20086919401126 C178.75926371609165,77.75143146469804 178.75926371609165,76.89620025580541 158.06003369207627,69.5163901738687 C158.06003369207627,69.5163901738687 158.06003369207627,69.5163901738687 158.06003369207627,69.5163901738687 C158.06003369207627,69.5163901738687 158.06003369207627,69.5163901738687 158.06003369207627,69.5163901738687 ZM103.24805692468243,114.1946682378425 C88.69170959245179,114.1946682378425 76.83910112360007,102.57240544789215 76.83910112360007,88.29167043051643 C76.83910112360007,74.02158812306214 88.69214742437447,62.410418035310784 103.24805692468243,62.410418035310784 C117.79641094385096,62.410418035310784 129.62416380967096,74.02424968027634 129.62416380967096,88.29167043051643 C129.62150225245676,102.57240544789215 117.79374362569041,114.1946682378425 103.24805692468243,114.1946682378425 C103.24805692468243,114.1946682378425 103.24805692468243,114.1946682378425 103.24805692468243,114.1946682378425 C103.24805692468243,114.1946682378425 103.24805692468243,114.1946682378425 103.24805692468243,114.1946682378425 Z" fill="#000000"/>
										</g>
									</g>
								</g>
							</g>
						</g>
					</g>
				</g>
			</g>
		</g>
	</g>
	<g>
		<path d="M186.7506998058691,36.351943443201726 C204.9029604901974,36.351943443201726 219.64805655679808,51.097039509802414 219.64805655679808,69.24930019413071 C219.64805655679808,87.40156087845901 204.9029604901974,102.1466569450597 186.7506998058691,102.1466569450597 C168.5984391215408,102.1466569450597 153.8533430549401,87.40156087845901 153.8533430549401,69.24930019413071 C153.8533430549401,51.097039509802414 168.5984391215408,36.351943443201726 186.7506998058691,36.351943443201726 Z" fill="#ce4141"/>
	</g>
</g></g></svg>