<svg xmlns="http://www.w3.org/2000/svg" viewBox="0 0 223 223" width="223" height="223"><defs></defs><g transform="matrix(1,0,0,1,-16.052400643,-16.052400643)">
<g>
	<g>
		<path d="M118.52513506126537,19.973465326995978 C123.7532213059712,14.745379082290157 132.24677869402865,14.745379082290157 137.47486493873447,19.973465326995978 L236.026534673004,118.5251350612654 C241.25462091770981,123.75322130597122 241.25462091770981,132.24677869402868 236.026534673004,137.4748649387345 L137.47486493873458,236.02653467300402 C132.24677869402876,241.25462091770984 123.7532213059713,241.25462091770984 118.52513506126547,236.02653467300402 L19.97346532699595,137.47486493873458 C14.745379082290128,132.24677869402876 14.745379082290128,123.75322130597132 19.97346532699595,118.5251350612655 L118.52513506126537,19.973465326995978 Z" transform="matrix(1,0,0,1,0,0)" fill="#ffffff" stroke="#ffffff" stroke-width="2"/>
	</g>
	<g>
		<g transform="matrix(0.188774695,0,0,0.188774695,69.960724564,106.866877608)">
			<g>
				<g>
					<g>
						<g>
							<path d="M597.7892248820801,11.904058152620564 C597.7892248820801,11.904058152620564 584.1649502331795,-20.396966834465275 584.1649502331795,-20.396966834465275 C630.8237680737741,-125.85551802911505 627.7298401607197,-128.98946352701023 618.6688975262452,-138.1373829740769 C618.6688975262452,-138.1373829740769 559.0628214967376,-196.3728073958664 559.0628214967376,-196.3728073958664 C559.0628214967376,-196.3728073958664 553.1475372615034,-201.35702359653078 553.1475372615034,-201.35702359653078 C553.1475372615034,-201.35702359653078 546.2425577052575,-201.35702359653078 546.2425577052575,-201.35702359653078 C542.6007601770627,-201.35702359653078 531.7295375190672,-201.35702359653078 441.12255061472496,-160.26073076558896 C441.12255061472496,-160.26073076558896 407.7752926878831,-173.7063612476486 407.7752926878831,-173.7063612476486 C364.67590538776966,-280.54732515721525 360.25592637112385,-280.54732515721525 347.6355173220447,-280.54732515721525 C347.6355173220447,-280.54732515721525 263.55033846011173,-280.54732515721525 263.55033846011173,-280.54732515721525 C250.94402794159504,-280.54732515721525 246.04444776696,-280.56143153524226 206.0719566994605,-173.32549464625117 C206.0719566994605,-173.32549464625117 172.8681235186461,-159.84459093219266 172.8681235186461,-159.84459093219266 C111.63746986627046,-185.6990538510545 75.72757979642591,-198.78733321971595 66.03657992971529,-198.78733321971595 C66.03657992971529,-198.78733321971595 58.08768131468349,-198.5404744069092 58.08768131468349,-198.5404744069092 C58.08768131468349,-198.5404744069092 -6.02535951259307,-135.68054362147814 -6.02535951259307,-135.68054362147814 C-15.753991334927207,-126.53262417441147 -19.148898660457064,-123.30698441667482 30.185460642807072,-19.480060110174236 C30.185460642807072,-19.480060110174236 16.610521882344244,12.70810488416464 16.610521882344244,12.70810488416464 C-92.54622096275017,54.90705168270506 -92.54622096275017,59.0002174336405 -92.54622096275017,71.91217548496206 C-92.54622096275017,71.91217548496206 -92.54622096275017,154.3586602564028 -92.54622096275017,154.3586602564028 C-92.54622096275017,167.29178404062986 -92.54622096275017,171.85045241899206 16.977280984648303,211.08235807954043 C16.977280984648303,211.08235807954043 30.549878958548277,243.2141289516294 30.549878958548277,243.2141289516294 C-16.101943427950403,348.6162142757821 -12.967997930055219,351.78074246401957 -3.9047145090178788,360.84168509849405 C-3.9047145090178788,360.84168509849405 55.70137048902069,419.14761114162684 55.70137048902069,419.14761114162684 C55.70137048902069,419.14761114162684 61.63071738069374,424.2446783665073 61.63071738069374,424.2446783665073 C61.63071738069374,424.2446783665073 68.5686473194375,424.2446783665073 68.5686473194375,424.2446783665073 C72.15399691419697,424.2446783665073 82.8912297206636,424.2446783665073 173.62515721125345,383.0637674465979 C173.62515721125345,383.0637674465979 206.91363538662807,396.60108321996813 206.91363538662807,396.60108321996813 C250.02005401496098,503.4279811098968 254.4471002339498,503.4020799926802 267.09570634415394,503.4020799926802 C267.09570634415394,503.4020799926802 351.19501961077293,503.4020799926802 351.19501961077293,503.4020799926802 C364.0552471759085,503.4020799926802 368.61624737230267,503.4020799926802 408.70866563489216,396.2202435241634 C408.70866563489216,396.2202435241634 442.08175293070343,382.7252592166042 442.08175293070343,382.7252592166042 C503.2418959932049,408.58677140074724 539.0695266977066,421.71734636109613 548.6993611837327,421.71734636109613 C548.6993611837327,421.71734636109613 556.7023759141678,421.4916263756022 556.7023759141678,421.4916263756022 C556.7023759141678,421.4916263756022 621.3067218322478,358.24612051005533 621.3067218322478,358.24612051005533 C630.4969548080637,348.97122460261744 633.7155811746427,345.7644366968161 584.6562822295757,242.3677507542743 C584.6562822295757,242.3677507542743 598.137203880696,210.15372051684244 598.137203880696,210.15372051684244 C707.4514700023803,167.91244225249102 707.4514700023803,163.47836470528273 707.4514700023803,150.85795565620356 C707.4514700023803,150.85795565620356 707.4514700023803,68.50316514460428 707.4514700023803,68.50316514460428 C707.4397032898498,55.527709894566215 707.4397032898498,50.99727445145254 597.7892248820801,11.904058152620564 C597.7892248820801,11.904058152620564 597.7892248820801,11.904058152620564 597.7892248820801,11.904058152620564 ZM307.4326426329873,248.5792117536912 C230.32300772835987,248.5792117536912 167.5359552249585,187.012363752292 167.5359552249585,111.36273392866133 C167.5359552249585,35.76953410140413 230.32533954639183,-25.738552085589617 307.4326426329873,-25.738552085589617 C384.4999460718038,-25.738552085589617 447.1553226046464,35.78363263196661 447.1553226046464,111.36273392866133 C447.14122407408394,187.012363752292 384.48581166711773,248.5792117536912 307.4326426329873,248.5792117536912 C307.4326426329873,248.5792117536912 307.4326426329873,248.5792117536912 307.4326426329873,248.5792117536912 Z" fill="#000000"/>
						</g>
					</g>
				</g>
			</g>
		</g>
	</g>
</g></g></svg>