<?xml version="1.0" encoding="UTF-8"?>
<svg id="Layer_1" xmlns="http://www.w3.org/2000/svg" version="1.1" viewBox="0 0 1000 1000">
  <!-- Generator: Adobe Illustrator 29.1.0, SVG Export Plug-In . SVG Version: 2.1.0 Build 142)  -->
  <defs>
    <style>
      .st0 {
        fill: #fff;
      }
    </style>
  </defs>
  <path class="st0" d="M1000,529.3v470.7H0V453.12c5.55,6.83,11.24,14.92,21.51,12.89l371.03-109.61c8.91-8.51,10.87-20.05,2.09-29.35l-121.15-68.26c106.61-114.7,273.95-148.8,416.68-80.78,195.41,93.13,263.8,343.19,140.72,522.98-114.05,166.61-340.76,205.49-505.32,87.71-16.15-11.56-34.16-32.41-53.97-35.88-48.21-8.43-81.6,42.96-54.47,83.76,14.84,22.32,78.02,61.53,103.15,74.59,277.97,144.41,611.5-19.51,671.3-322.93l8.43-58.95Z"/>
  <path d="M1000,470.7v58.59l-8.43,58.95c-59.8,303.42-393.33,467.33-671.3,322.93-25.12-13.05-88.31-52.26-103.15-74.59-27.13-40.81,6.26-92.19,54.47-83.76,19.81,3.46,37.82,24.32,53.97,35.88,164.56,117.79,391.27,78.9,505.32-87.71,123.08-179.8,54.68-429.86-140.72-522.98-142.73-68.02-310.07-33.92-416.68,80.78l121.15,68.26c8.78,9.3,6.82,20.85-2.09,29.35L21.51,466.01c-10.28,2.04-15.96-6.05-21.51-12.89v-11.72c37.82-121.16,71.1-243.82,108.55-365.08,7.54-11.41,22.69-14.52,32.1-3.11l59.55,106.43C319.18,55.2,499.07,5.85,665.56,54.17c183.46,53.25,321.13,219.88,332.4,411.82l2.04,4.72Z"/>
  <path class="st0" d="M0,441.41V0h1000v470.7l-2.04-4.72c-11.27-191.94-148.94-358.56-332.4-411.82-166.49-48.33-346.38,1.03-465.36,125.48l-59.55-106.43c-9.41-11.41-24.55-8.3-32.1,3.11C71.1,197.59,37.82,320.25,0,441.41Z"/>
</svg>