<?xml version="1.0" encoding="UTF-8"?>
<svg id="Layer_1" xmlns="http://www.w3.org/2000/svg" version="1.1" viewBox="0 0 1000 1000">
  <!-- Generator: Adobe Illustrator 29.1.0, SVG Export Plug-In . SVG Version: 2.1.0 Build 142)  -->
  <defs>
    <style>
      .st0 {
        fill: #fff;
      }
    </style>
  </defs>
  <path class="st0" d="M1000,453.13v546.88H.38v-470.7l8.43,58.95c59.78,303.42,393.18,467.33,671.05,322.93,25.11-13.05,88.27-52.26,103.11-74.59,27.12-40.81-6.26-92.19-54.45-83.76-19.8,3.46-37.8,24.32-53.95,35.88-174.87,125.21-418.03,72.05-522.24-115.52C21.69,438.03,191.19,147.74,458.13,142.5c100.29-1.97,200.99,43.47,268.5,116.29l-121.11,68.26c-8.78,9.3-6.81,20.85,2.09,29.35l370.89,109.61c10.27,2.04,15.95-6.05,21.5-12.89Z"/>
  <path d="M1000,441.41v11.72c-5.55,6.83-11.23,14.92-21.5,12.89l-370.89-109.61c-8.91-8.51-10.87-20.05-2.09-29.35l121.11-68.26c-67.5-72.82-168.21-118.26-268.5-116.29C191.19,147.74,21.69,438.03,152.33,673.19c104.2,187.57,347.37,240.73,522.24,115.52,16.14-11.56,34.14-32.41,53.95-35.88,48.19-8.43,81.57,42.96,54.45,83.76-14.84,22.32-77.99,61.53-103.11,74.59-277.87,144.41-611.27-19.51-671.05-322.93L.38,529.3c.87-19.28-1.18-39.42,0-58.59C16.26,213.38,247.47,13.83,505.05,37.13c111.43,10.08,217.9,62.3,294.83,142.52l59.52-106.43c9.4-11.41,24.54-8.3,32.08,3.11l108.51,365.08Z"/>
  <path class="st0" d="M.38,470.7V0h999.62v441.41l-108.51-365.08c-7.54-11.41-22.68-14.52-32.08-3.11l-59.52,106.43c-76.94-80.22-183.4-132.44-294.83-142.52C247.47,13.83,16.26,213.38.38,470.7Z"/>
</svg>