<?xml version="1.0" encoding="UTF-8"?>
<svg xmlns="http://www.w3.org/2000/svg" viewBox="0 0 1122 1122">
  <defs>
    <style>
      .cls-1 {
        fill: #fff;
      }

      .cls-2 {
        fill: #616e7d;
      }

      .cls-3 {
        fill: #aad4c8;
      }
    </style>
  </defs>
  <g id="Bg">
    <rect class="cls-1" width="1122" height="1122"/>
  </g>
  <g id="Object">
    <g>
      <path class="cls-2" d="M574.39,890.91c6.57,3.32,14.52,2.65,20.46-1.73l221.83-163.68c5-3.69,7.95-9.51,7.95-15.73.02-6.23-2.93-12.05-7.91-15.76l-221.83-164.72c-5.92-4.39-13.89-5.08-20.49-1.77-6.58,3.31-10.78,10.13-10.78,17.5v65.86h-267.62c-5.17,0-10.2,2.09-13.86,5.73-3.64,3.65-5.72,8.7-5.72,13.86v157.51c0,5.15,2.08,10.2,5.72,13.85,3.66,3.64,8.69,5.73,13.86,5.73h267.62v65.86c0,7.37,4.17,14.16,10.76,17.49Z"/>
      <path class="cls-3" d="M526.18,230.98c-6.22-3.14-13.73-2.51-19.34,1.63l-221.83,163.69c-4.74,3.49-7.53,9-7.53,14.89-.03,5.88,2.75,11.4,7.48,14.9l221.83,164.71c5.6,4.16,13.15,4.82,19.37,1.67,6.23-3.13,10.2-9.57,10.2-16.55v-66.92h290.69c4.87,0,9.66-1.98,13.1-5.42,3.46-3.46,5.43-8.23,5.43-13.11v-157.51c0-4.88-1.97-9.65-5.43-13.1-3.45-3.44-8.23-5.42-13.1-5.42h-290.69v-66.91c0-6.98-3.95-13.4-10.18-16.55Z"/>
    </g>
  </g>
</svg>